<svg xmlns="http://www.w3.org/2000/svg" width="23.29" height="18.514" viewBox="0 0 23.29 18.514">
  <path id="パス_9179" data-name="パス 9179" d="M23.29,7.314a.368.368,0,0,1-.138.284l-8.741,6.951a.371.371,0,0,1-.386.044.364.364,0,0,1-.2-.327V10.917a15.566,15.566,0,0,0-11.55,5.539L.641,18.391a.354.354,0,0,1-.277.124.378.378,0,0,1-.124-.021A.361.361,0,0,1,0,18.151v-.16A14.251,14.251,0,0,1,13.821,3.718V.363A.362.362,0,0,1,14.41.079l8.741,6.944a.375.375,0,0,1,.138.291Z" transform="translate(0 0)" fill="#fdd365"/>
</svg>
