<svg id="レイヤー_1" data-name="レイヤー 1" xmlns="http://www.w3.org/2000/svg" viewBox="0 0 60 60"><defs><style>.cls-1{fill:#fdd365;isolation:isolate;}.cls-2{fill:#048998;}.cls-3{fill:none;stroke:#048998;stroke-miterlimit:10;stroke-width:0.57px;}</style></defs><circle class="cls-1" cx="30" cy="30.07" r="21.69"/><path class="cls-2" d="M27.68,19.56a2.5,2.5,0,0,1,2.58-2.51,2.61,2.61,0,0,1,2.58,2.51,2.57,2.57,0,0,1-2.58,2.61A2.44,2.44,0,0,1,27.68,19.56Zm2.58,25.79a1.83,1.83,0,0,1-2-1.88c0-3,0-7.26,0-10.61,0-1.66,0-3.13,0-4.13a1.82,1.82,0,0,1,2-1.88,1.81,1.81,0,0,1,2,1.77v.08c0,1.51-.08,4.42-.08,7.51,0,2.55,0,5.16.08,7.19v.07A1.86,1.86,0,0,1,30.26,45.35Z"/><path class="cls-2" d="M27.68,19.56a2.5,2.5,0,0,1,2.58-2.51,2.61,2.61,0,0,1,2.58,2.51,2.57,2.57,0,0,1-2.58,2.61A2.44,2.44,0,0,1,27.68,19.56Zm2.58,25.79a1.83,1.83,0,0,1-2-1.88c0-3,0-7.26,0-10.61,0-1.66,0-3.13,0-4.13a1.82,1.82,0,0,1,2-1.88,1.81,1.81,0,0,1,2,1.77v.08c0,1.51-.08,4.42-.08,7.51,0,2.55,0,5.16.08,7.19v.07A1.86,1.86,0,0,1,30.26,45.35Z"/><path class="cls-3" d="M27.68,19.56a2.5,2.5,0,0,1,2.58-2.51,2.61,2.61,0,0,1,2.58,2.51,2.57,2.57,0,0,1-2.58,2.61A2.44,2.44,0,0,1,27.68,19.56Zm2.58,25.79a1.83,1.83,0,0,1-2-1.88c0-3,0-7.26,0-10.61,0-1.66,0-3.13,0-4.13a1.82,1.82,0,0,1,2-1.88,1.81,1.81,0,0,1,2,1.77v.08c0,1.51-.08,4.42-.08,7.51,0,2.55,0,5.16.08,7.19v.07A1.86,1.86,0,0,1,30.26,45.35Z"/></svg>