<svg id="レイヤー_1" data-name="レイヤー 1" xmlns="http://www.w3.org/2000/svg" viewBox="0 0 60 60"><defs><style>.cls-1{fill:#3bb4c1;isolation:isolate;}.cls-2{fill:#048998;}.cls-3{fill:#fcc73f;stroke:#fff;stroke-miterlimit:10;}</style></defs><rect class="cls-1" x="8" y="14" width="44" height="38"/><rect class="cls-2" x="13" y="25.53" width="9.22" height="9.22"/><rect class="cls-2" x="25.39" y="25.53" width="9.22" height="9.22"/><rect class="cls-2" x="37.78" y="25.53" width="9.22" height="9.22"/><rect class="cls-2" x="13" y="38.08" width="9.22" height="9.22"/><rect class="cls-2" x="25.39" y="38.08" width="9.22" height="9.22"/><rect class="cls-2" x="37.78" y="38.08" width="9.22" height="9.22"/><line class="cls-3" x1="18" y1="9.5" x2="18" y2="18.5"/><path class="cls-3" d="M18,20a1.76,1.76,0,0,1-1.94-1.5v-9A1.76,1.76,0,0,1,18,8a1.76,1.76,0,0,1,1.94,1.5v9A1.76,1.76,0,0,1,18,20Z"/><line class="cls-3" x1="42" y1="9.5" x2="42" y2="18.5"/><path class="cls-3" d="M42,20a1.76,1.76,0,0,1-1.94-1.5v-9a2,2,0,0,1,3.88,0v9A1.76,1.76,0,0,1,42,20Z"/></svg>