<svg id="レイヤー_1" data-name="レイヤー 1" xmlns="http://www.w3.org/2000/svg" viewBox="0 0 60 60"><defs><style>.cls-1{fill:#3bb4c1;isolation:isolate;}.cls-2{fill:#048998;}.cls-3{fill:#fcc73f;}</style></defs><rect class="cls-1" x="7.07" y="7" width="27.43" height="27.43" rx="3"/><rect class="cls-2" x="26.5" y="27.57" width="27.43" height="27.43" rx="3"/><path class="cls-3" d="M18.38,26.64A19.54,19.54,0,0,1,16,28.13c-1.36.7-3.44.35-3.2-2.58a8.57,8.57,0,0,1,3.92-5.79c.28-.18.59-.35.91-.53.07-.83.16-1.7.27-2.6a8.26,8.26,0,0,1-2.73-.21,1,1,0,1,1,.61-1.93,6.6,6.6,0,0,0,2.36.18c.08-.64.19-1.29.28-1.95.24-1.61,2.36-1.26,2.12,0-.09.54-.2,1.09-.28,1.59a22.22,22.22,0,0,0,2.95-.85c1.26-.48,2.23,1.38.5,1.94a26.51,26.51,0,0,1-3.78,1c-.11.7-.2,1.33-.28,1.94a8.68,8.68,0,0,1,2.29-.48h.26v0c.15-1.29,2.16-.88,2.08.17,6.38,1.16,6,9.2-1.4,11.65-2,.65-2.51-1.38-.72-2,5.44-1.77,5.66-6.93,1.7-7.91a14,14,0,0,1-3.78,5.44,3.09,3.09,0,0,0,.24.44c.77,1.27-1.05,2.66-1.88,1.11Zm-.85-5.37a6.17,6.17,0,0,0-2.8,4.1c-.07.88.52,1,1.09.66a17.53,17.53,0,0,0,1.95-1.27A16.45,16.45,0,0,1,17.53,21.27Zm4.17-1.62a9.29,9.29,0,0,0-2.25.59,14.46,14.46,0,0,0,0,3,10.33,10.33,0,0,0,2.28-3.56Z"/><path class="cls-3" d="M46.22,50.13a1.36,1.36,0,0,1-1.33-.87c-.28-.67-.89-2.54-1.62-4.72,0-.14-.11-.21-.25-.21-.38,0-1.33,0-2.39,0-1.4,0-3,0-3.45,0a.28.28,0,0,0-.28.21c-.59,1.85-1.12,3.53-1.47,4.65a1.33,1.33,0,0,1-1.31,1A1.25,1.25,0,0,1,32.79,49c0-.42.07-.6,5.18-15A2.17,2.17,0,0,1,40,32.42,2.32,2.32,0,0,1,42.2,34c1.49,4.21,4.53,12.34,5.3,14.16a1.73,1.73,0,0,1,.14.68A1.32,1.32,0,0,1,46.22,50.13Zm-3.9-8.48c-.73-2.2-1.43-4.32-1.8-5.47-.14-.42-.26-.65-.4-.65s-.26.21-.42.67c-.35.94-1.87,5.31-1.87,5.52s.05.14.19.14l2.15,0,2,0c.14,0,.19,0,.19-.1A.26.26,0,0,0,42.32,41.65Z"/></svg>