<svg id="レイヤー_1" data-name="レイヤー 1" xmlns="http://www.w3.org/2000/svg" viewBox="0 0 60 60"><defs><style>.cls-1{fill:#fdd365;isolation:isolate;}.cls-2{fill:#048998;stroke:#048998;stroke-miterlimit:10;stroke-width:2px;}</style></defs><circle class="cls-1" cx="30" cy="30.07" r="21.69"/><path class="cls-2" d="M27.85,33.49c0-3.85,4-5.6,5.06-7.6a5.24,5.24,0,0,0,.66-2.48,3.37,3.37,0,0,0-3.45-3.67,3.85,3.85,0,0,0-3.66,2.82,1.49,1.49,0,0,1-1.54.91A1.51,1.51,0,0,1,23.25,22c0-1.11,1.85-5.29,6.84-5.29a6.41,6.41,0,0,1,6.66,6.63,8.26,8.26,0,0,1-.61,3c-1.08,2.73-5.05,4.27-5.05,7a1.68,1.68,0,0,1-1.69,1.76A1.53,1.53,0,0,1,27.85,33.49Zm1.64,10.93a2.1,2.1,0,0,1-2.09-2,2.19,2.19,0,0,1,2.09-2.09,2,2,0,0,1,2.08,2.09A2,2,0,0,1,29.49,44.42Z"/></svg>