<?xml version="1.0" encoding="UTF-8"?><svg xmlns="http://www.w3.org/2000/svg" viewBox="0 0 60 60"><defs><style>.d{fill:#048998;}.e{fill:#fdd365;}</style></defs><g id="a"><g><path class="d" d="M30,47c-12.1,0-22.32-9.49-26.15-13.58-1.8-1.92-1.8-4.93,0-6.85,3.83-4.08,14.05-13.58,26.15-13.58s22.32,9.49,26.15,13.58h0c1.8,1.92,1.8,4.93,0,6.85-3.83,4.08-14.05,13.58-26.15,13.58Zm0-30c-10.54,0-19.76,8.61-23.23,12.31-.37,.39-.37,.98,0,1.37,3.47,3.7,12.69,12.31,23.23,12.31s19.76-8.61,23.23-12.31c.37-.39,.37-.98,0-1.37-3.48-3.7-12.7-12.31-23.23-12.31Z"/><circle class="d" cx="30" cy="30" r="10"/><path class="e" d="M10.89,51.83c-.64,0-1.28-.24-1.77-.73-.98-.98-.98-2.56,0-3.54L47.89,8.79c.98-.98,2.56-.98,3.54,0s.98,2.56,0,3.54L12.66,51.09c-.49,.49-1.13,.73-1.77,.73Z"/></g></g><g id="b"/><g id="c"/></svg>