<svg id="レイヤー_1" data-name="レイヤー 1" xmlns="http://www.w3.org/2000/svg" viewBox="0 0 25.46 25.47"><defs><style>.cls-1{opacity:0.1;}.cls-1,.cls-2{isolation:isolate;}.cls-3{fill:#333;}</style></defs><g id="_" data-name=" " class="cls-1"><g class="cls-2"><path class="cls-3" d="M6.42,8.62H4.16a.42.42,0,0,1-.43-.42V5.93a.42.42,0,0,1,.43-.42H6.42a.42.42,0,0,1,.43.42V8.2A.42.42,0,0,1,6.42,8.62Zm0,5.67H4.16a.42.42,0,0,1-.43-.42V11.6a.43.43,0,0,1,.43-.43H6.42a.43.43,0,0,1,.43.43v2.27A.42.42,0,0,1,6.42,14.29Zm0,5.67H4.16a.42.42,0,0,1-.43-.42V17.27a.43.43,0,0,1,.43-.43H6.42a.43.43,0,0,1,.43.43v2.27A.42.42,0,0,1,6.42,20ZM8.55,8.06a.42.42,0,0,1-.42-.43V6.5a.42.42,0,0,1,.42-.43H21.31a.42.42,0,0,1,.42.43V7.63a.42.42,0,0,1-.42.43Zm12.76,5.67H8.55a.42.42,0,0,1-.42-.43V12.17a.42.42,0,0,1,.42-.43H21.31a.42.42,0,0,1,.42.43V13.3A.42.42,0,0,1,21.31,13.73Zm0,5.66H8.55A.42.42,0,0,1,8.13,19V17.84a.42.42,0,0,1,.42-.43H21.31a.42.42,0,0,1,.42.43V19A.42.42,0,0,1,21.31,19.39Z"/></g></g></svg>