<svg id="レイヤー_1" data-name="レイヤー 1" xmlns="http://www.w3.org/2000/svg" viewBox="0 0 60 60"><defs><style>.cls-1{fill:#fdd365;}.cls-1,.cls-2{isolation:isolate;}.cls-3{fill:#048998;stroke:#048998;stroke-miterlimit:10;stroke-width:0.5px;}</style></defs><circle class="cls-1" cx="30" cy="30.07" r="21.69"/><g class="cls-2"><path class="cls-3" d="M14.35,35.24c0-1.44,0-3.14,0-4.75,0-1.4,0-2.73,0-3.78v-.06c0-1,.54-1.37,1.16-1.37A1.66,1.66,0,0,1,16.9,26c.88,1.4,3.22,5.77,4.29,7.36.08.13.15.2.19.2s.1,0,.1-.59c0-1.31,0-5.68-.08-7A.81.81,0,0,1,23,26v0c0,1,0,2.34,0,3.74,0,1.78,0,3.61,0,4.83v0A1.26,1.26,0,0,1,21.75,36a1.45,1.45,0,0,1-1.21-.7c-1-1.56-3.6-6.35-4.35-7.62-.06-.09-.16-.27-.23-.27s-.08.14-.08.79c0,1.45,0,5.58.08,7.07v0c0,.45-.39.66-.8.66a.73.73,0,0,1-.81-.68Z"/><path class="cls-3" d="M29.3,26.71c-1.4,0-1.69,0-1.73.63,0,.34,0,1,0,1.83,0,.28,0,.28,1.74.28h1.56a.71.71,0,0,1,.79.74.74.74,0,0,1-.74.8h-.07c-.35,0-.89,0-1.42,0-1.73,0-1.87,0-1.87.31,0,2.08,0,2.41,0,2.64.07.65.29.68,2.27.68.82,0,1.72,0,2,0h.07a.7.7,0,0,1,.75.71.82.82,0,0,1-.88.79c-.18,0-1,0-1.81,0s-1.61,0-1.79,0c-1.29-.1-2.09-.56-2.14-1.79,0-.59,0-1.63,0-2.76,0-1.71,0-3.62,0-4.5a1.75,1.75,0,0,1,1.89-1.77l1.84,0,1.77,0a.75.75,0,0,1,.79.75.77.77,0,0,1-.83.75Z"/><path class="cls-3" d="M43.2,35.93c-.64,0-1.27-.47-1.52-1.49-.36-1.48-1.09-5.81-1.24-7,0-.18-.07-.25-.12-.25s-.08.1-.11.25c-.18,1.28-.85,5.25-1.3,7a1.75,1.75,0,0,1-1.61,1.5,1.65,1.65,0,0,1-1.56-1.49c-1.5-7.09-1.69-8.15-1.69-8.4a.78.78,0,0,1,.85-.75.8.8,0,0,1,.84.62c1.4,8.05,1.43,8.14,1.63,8.14s.21-.16.25-.37c.27-1.16,1-5.4,1.39-7.26a1.27,1.27,0,0,1,1.29-1.1,1.33,1.33,0,0,1,1.35,1C42,28,42.66,32,43,33.61c0,.24.11.33.18.33s.28,0,1.86-8a.78.78,0,0,1,.79-.61.82.82,0,0,1,.88.73c0,.27-.74,3.6-1.92,8.48A1.7,1.7,0,0,1,43.2,35.93Z"/></g></svg>