<svg id="レイヤー_1" data-name="レイヤー 1" xmlns="http://www.w3.org/2000/svg" viewBox="0 0 60 60"><defs><style>.cls-1{fill:#048998;}.cls-2{fill:#fcc73f;}</style></defs><path class="cls-1" d="M47.08,31.28c0,1.36-2,2.46-4.53,2.46s-4.5-1.1-4.53-2.46a7.39,7.39,0,0,0-4,1.63l.27.28a11.73,11.73,0,0,1,3.09,8,9.55,9.55,0,0,1-.14,1.67H46.4c4.12,0,7.46,0,7.46-4.11A7.45,7.45,0,0,0,47.08,31.28Z"/><path class="cls-1" d="M36.91,24.53s0,.11,0,.16c.36,4.07,2.74,7.22,5.63,7.22s5.28-3.15,5.64-7.22c0-.05,0-.11,0-.16s0-.36,0-.54,0-.25,0-.37a7,7,0,0,0-.06-.92,5.67,5.67,0,0,0-11.29,0,5.62,5.62,0,0,0-.07.92c0,.12,0,.25,0,.37A5,5,0,0,0,36.91,24.53Z"/><path class="cls-2" d="M26.5,31.58c0,1.75-2.63,3.16-5.82,3.16s-5.79-1.41-5.83-3.16a9.6,9.6,0,0,0-8.71,9.56c0,5.27,4.25,5.28,9.52,5.28h10c5.26,0,9.52,0,9.52-5.28A9.6,9.6,0,0,0,26.5,31.58Z"/><path class="cls-2" d="M13.42,22.9a1.49,1.49,0,0,0,0,.21,12.86,12.86,0,0,0,2.12,6.23A8.65,8.65,0,0,0,17,31a5.66,5.66,0,0,0,3.68,1.45A5.63,5.63,0,0,0,24.35,31a8.31,8.31,0,0,0,1.44-1.61,12.87,12.87,0,0,0,2.13-6.23c0-.07,0-.14,0-.21s0-.45.07-.69,0-.32,0-.48a9,9,0,0,0-.08-1.17A7.47,7.47,0,0,0,20.68,14a7.46,7.46,0,0,0-7.26,6.56,7.49,7.49,0,0,0-.09,1.17c0,.16,0,.32,0,.48A5,5,0,0,0,13.42,22.9Z"/></svg>