<svg id="レイヤー_1" data-name="レイヤー 1" xmlns="http://www.w3.org/2000/svg" viewBox="0 0 60 60"><defs><style>.cls-1{fill:#048998;isolation:isolate;}</style></defs><path class="cls-1" d="M54.05,52.33a2.43,2.43,0,0,0-.41-.5,13.38,13.38,0,0,0-5-3.17A21.81,21.81,0,0,0,43,47.42a39.34,39.34,0,0,0-7.44,0c-1.51.14-3,.34-4.5.52s-2.82.36-4.23.51c-1.57.16-3.14.35-4.72.43-1.82.09-3.65.09-5.48.1a10.55,10.55,0,0,1-3-.32,4.47,4.47,0,0,1-3.07-5,10.1,10.1,0,0,1,.93-2.51.29.29,0,0,1,.29-.19c1.06,0,2.12-.07,3.17-.12l1,0c1.05-.07,2.1-.12,3.15-.21,1.37-.1,2.73-.3,4.1-.34,2.38-.06,4.76,0,7.14,0l5.51,0a3,3,0,0,0,1.65-.5,1.18,1.18,0,0,0,.19-1.93,2.89,2.89,0,0,0-.78-.5,5,5,0,0,0-2.19-.4c-1.77,0-3.55,0-5.32,0H28.35a7.13,7.13,0,0,0,2.84-5.74l.54.36a5.71,5.71,0,0,0,3.38.93A6.23,6.23,0,0,0,38.87,31l.55-.4c.31-.2.44-.21.73,0a8.16,8.16,0,0,1,.73.71c.43.47.84,1,1.28,1.44s.79.37,1.09-.16a1.42,1.42,0,0,0,.08-.18,4.39,4.39,0,0,0-.07-3,3.7,3.7,0,0,0-.55-.86,3.19,3.19,0,0,0-.85-.83,3,3,0,0,0-.65-.26,6.11,6.11,0,0,0-.74-.17,5.53,5.53,0,0,0-1.52,0,11.92,11.92,0,0,0-1.35.26h-.07s0-.07,0-.09,0-.17.08-.26a15.14,15.14,0,0,1,1.9-3.43,2.19,2.19,0,0,1,.75-.67,15.61,15.61,0,0,1,3.63-1.58A14.07,14.07,0,0,0,48,19.7a6.39,6.39,0,0,0,2.49-3.36,1.06,1.06,0,0,0-.22-1.18,8.81,8.81,0,0,0-2.17-1.61,48.94,48.94,0,0,0-4.68-1.78,29,29,0,0,0-4.18-1.13c-.21,0-.38,0-.42-.34A4,4,0,0,0,35.55,7a1.89,1.89,0,0,0-2,1.19,2.6,2.6,0,0,0,.18,2.06l.28.53-.08,0-3,.69a18.69,18.69,0,0,1-4.82.62c-1.65-.05-3.3-.19-4.95-.27a15.1,15.1,0,0,0-2.23,0,10.71,10.71,0,0,0-3.29.8A11.79,11.79,0,0,0,13,14.34a14.63,14.63,0,0,0-2.16,2.22,16.2,16.2,0,0,0-2.27,4,15.11,15.11,0,0,0-1,4.92,28.5,28.5,0,0,0,.71,6.24,28.57,28.57,0,0,1,.69,6.77.72.72,0,0,1-.15.42,15.19,15.19,0,0,0-2.43,4.45,7.22,7.22,0,0,0-.28,3.93,6.63,6.63,0,0,0,3.47,4.39A11,11,0,0,0,14.61,53c1.51.06,3,.06,4.55,0,1.95-.06,3.91-.17,5.86-.3,1.64-.11,3.27-.25,4.9-.44s3-.42,4.57-.66c1.75-.27,3.49-.62,5.26-.75a34.06,34.06,0,0,1,5,0,23.31,23.31,0,0,1,8.14,2,2.55,2.55,0,0,0,.76.22.49.49,0,0,0,.36-.2A.56.56,0,0,0,54.05,52.33Z"/></svg>