<svg id="レイヤー_1" data-name="レイヤー 1" xmlns="http://www.w3.org/2000/svg" viewBox="0 0 60 60"><defs><style>.cls-1,.cls-2,.cls-4{isolation:isolate;}.cls-2,.cls-3{fill:#fdd365;}.cls-4{fill:#048998;}</style></defs><g class="cls-1"><circle class="cls-2" cx="30" cy="30.07" r="21.69"/></g><g class="cls-1"><path class="cls-3" d="M32.32,42.58a2.5,2.5,0,0,1-2.58,2.5,2.56,2.56,0,1,1,0-5.12A2.44,2.44,0,0,1,32.32,42.58Zm-2.58-25.8a1.84,1.84,0,0,1,2,1.88c0,3.06,0,7.26,0,10.61,0,1.66,0,3.14,0,4.13a1.81,1.81,0,0,1-2,1.88,1.81,1.81,0,0,1-2-1.77v-.07c0-1.51.08-4.42.08-7.52,0-2.54,0-5.16-.08-7.19v-.07A1.87,1.87,0,0,1,29.74,16.78Z"/><path class="cls-4" d="M32.32,42.58a2.5,2.5,0,0,1-2.58,2.5,2.56,2.56,0,1,1,0-5.12A2.44,2.44,0,0,1,32.32,42.58Zm-2.58-25.8a1.84,1.84,0,0,1,2,1.88c0,3.06,0,7.26,0,10.61,0,1.66,0,3.14,0,4.13a1.81,1.81,0,0,1-2,1.88,1.81,1.81,0,0,1-2-1.77v-.07c0-1.51.08-4.42.08-7.52,0-2.54,0-5.16-.08-7.19v-.07A1.87,1.87,0,0,1,29.74,16.78Z"/></g></svg>