<svg id="レイヤー_1" data-name="レイヤー 1" xmlns="http://www.w3.org/2000/svg" viewBox="0 0 60 60"><defs><style>.cls-1{isolation:isolate;}.cls-2{fill:#048998;}</style></defs><g class="cls-1"><path class="cls-2" d="M37.57,31.78c0,2.27-3.42,4.11-7.57,4.11s-7.52-1.84-7.57-4.11A12.47,12.47,0,0,0,11.1,44.2c0,6.86,5.53,6.88,12.37,6.88H36.53c6.84,0,12.37,0,12.37-6.88A12.47,12.47,0,0,0,37.57,31.78Z"/><path class="cls-2" d="M20.56,20.5a2.45,2.45,0,0,1,0,.27,16.83,16.83,0,0,0,2.77,8.1A11.14,11.14,0,0,0,25.22,31a7,7,0,0,0,9.56,0,11.46,11.46,0,0,0,1.87-2.09,16.83,16.83,0,0,0,2.77-8.1,2.45,2.45,0,0,1,0-.27q.06-.45.09-.9c0-.21,0-.41,0-.63a11,11,0,0,0-.11-1.52A9.72,9.72,0,0,0,30,8.92a9.72,9.72,0,0,0-9.44,8.53A11,11,0,0,0,20.45,19c0,.22,0,.42,0,.63S20.52,20.2,20.56,20.5Z"/></g></svg>