<svg id="レイヤー_1" data-name="レイヤー 1" xmlns="http://www.w3.org/2000/svg" viewBox="0 0 60 60"><defs><style>.cls-1{fill:#048998;}</style></defs><path id="パス_9107" data-name="パス 9107" class="cls-1" d="M49.27,10.73l-4.42,4.42A21,21,0,0,0,9,28.94,1,1,0,0,0,10,30h2.42a1,1,0,0,0,1-1A16.6,16.6,0,0,1,41.74,18.26l-4.59,4.59a1,1,0,0,0,.72,1.73H50a1,1,0,0,0,1-1V11.45a1,1,0,0,0-1-1A1,1,0,0,0,49.27,10.73ZM50,30H47.59a1,1,0,0,0-1,1A16.6,16.6,0,0,1,18.26,41.74l4.59-4.59a1,1,0,0,0-.72-1.73H10a1,1,0,0,0-1,1H9V48.55a1,1,0,0,0,1,1,1,1,0,0,0,.71-.29l4.42-4.42A21,21,0,0,0,51,31.06,1,1,0,0,0,50,30Z"/></svg>