<svg id="レイヤー_1" data-name="レイヤー 1" xmlns="http://www.w3.org/2000/svg" viewBox="0 0 60 60"><defs><style>.cls-1{fill:#fff;}.cls-1,.cls-2,.cls-3{isolation:isolate;}.cls-2{fill:#fdd365;}.cls-3{fill:#3bb4c1;}</style></defs><path class="cls-1" d="M51.63,31.85,47.92,24.4A20,20,0,1,0,20,44.32V54H38V46.9a5.47,5.47,0,0,0,1,.1h4a5,5,0,0,0,5-5V35.4l3.33-2.17A1,1,0,0,0,51.63,31.85Z"/><path class="cls-2" d="M33,22.5c0,5.5-5,7.5-5,11.75,0,1.17-2.25.75-3.5.75-1.07,0-2.93.45-3-.56C21,30,16,28,16,22.5a8.5,8.5,0,0,1,17,0Z"/><rect class="cls-3" x="21.45" y="34.5" width="6.55" height="3"/></svg>