<?xml version="1.0" encoding="UTF-8"?><svg xmlns="http://www.w3.org/2000/svg" viewBox="0 0 60 60"><defs><style>.d{fill:#3bb4c1;isolation:isolate;}.e{fill:none;stroke:#3bb4c1;stroke-miterlimit:10;stroke-width:7px;}</style></defs><g id="a"><g><path class="e" d="M21,33v-15c0-4.97,4.03-9,9-9h0c4.97,0,9,4.03,9,9v15"/><path class="d" d="M10,23v30H50V23H10Zm22.6,15.3c-.42,.29-.7,.76-.7,1.28v4.53c0,1.2-1.12,2.14-2.37,1.84-.86-.21-1.43-1.05-1.43-1.93v-4.44c0-.51-.27-.98-.69-1.27-1.45-1-2.29-2.81-1.85-4.78,.37-1.69,1.75-3.06,3.45-3.41,2.95-.62,5.55,1.61,5.55,4.45,0,1.55-.78,2.92-1.96,3.74Z"/></g></g><g id="b"/><g id="c"/></svg>