<svg id="レイヤー_1" data-name="レイヤー 1" xmlns="http://www.w3.org/2000/svg" viewBox="0 0 60 60"><defs><style>.cls-1{fill:#fdd365;}.cls-2,.cls-3{fill:#048998;}.cls-3{stroke:#048998;stroke-miterlimit:10;stroke-width:0.5px;}</style></defs><path class="cls-1" d="M46.36,55.56H13.64A3.79,3.79,0,0,1,10,51.63V27.92c0-2.4,0-7.2,0-7.2l14-15.29H46.36A3.79,3.79,0,0,1,50,9.37V51.63A3.79,3.79,0,0,1,46.36,55.56Z"/><path class="cls-2" d="M23.15,7.88l.35,8a3,3,0,0,1-3,3l-8,.7Z"/><path class="cls-2" d="M22.26,10.33l.24,5.51a2,2,0,0,1-2,2h-.17L15,18.28l7.29-8m1.79-4.9L10,20.72,20.5,19.8a4,4,0,0,0,4-4L24.05,5.43Z"/><path class="cls-3" d="M19,36.45a.63.63,0,0,1-.68-.61v0c.05-.93.06-2,.06-3,0-1.23,0-2.41,0-3.25,0-1.47,0-2.26,2.36-2.26l.67,0A2.69,2.69,0,0,1,24.13,30a2.82,2.82,0,0,1-2.6,2.85,6.25,6.25,0,0,1-.87.06,3.9,3.9,0,0,1-.87-.09h-.08c-.07,0-.08,0-.08.13,0,.74,0,1.59,0,2.39v.46A.65.65,0,0,1,19,36.45Zm1.69-7.91c-.95,0-1.06.13-1.06,1.24,0,.42,0,.92,0,1.34v.2c0,.25.24.34,1,.34.23,0,.48,0,.73,0a1.66,1.66,0,0,0,1.47-1.68,1.37,1.37,0,0,0-1.55-1.39Z"/><path class="cls-3" d="M29.26,36.58c-1,0-2.67,0-2.79-1.69,0-.58-.06-1.56-.06-2.56,0-1.32,0-2.71.08-3.36.09-1.64,1.28-1.69,2.77-1.69l.91,0a4.34,4.34,0,0,1,4.29,4.61C34.46,36.57,30.5,36.58,29.26,36.58Zm-.17-8c-.58,0-1.22,0-1.26.61s-.07,1.89-.07,3.18c0,1,0,1.84.07,2.29s.43.65,1.43.65c1.26,0,3.78,0,3.78-3.39a3,3,0,0,0-3-3.33Z"/><path class="cls-3" d="M37.12,35.82c0-1.43,0-5.75.05-7a1.49,1.49,0,0,1,1.62-1.51l1.53,0,1.49,0a.64.64,0,0,1,.67.64.66.66,0,0,1-.71.64H39.94c-1.15,0-1.43,0-1.47.54,0,.29,0,.9,0,1.6,0,.24,0,.24,1.41.24h1.26a.6.6,0,0,1,.67.63.63.63,0,0,1-.63.68H41.1c-.3,0-.72,0-1.15,0-1.33,0-1.51,0-1.51.26,0,.72,0,2.17,0,2.94v.43a.65.65,0,0,1-.7.6.59.59,0,0,1-.63-.62Z"/></svg>