<svg id="レイヤー_1" data-name="レイヤー 1" xmlns="http://www.w3.org/2000/svg" viewBox="0 0 60 60"><defs><style>.cls-1{fill:#048998;}.cls-1,.cls-2{isolation:isolate;}.cls-3{fill:#fdd365;stroke:#fdd365;stroke-miterlimit:10;}</style></defs><circle class="cls-1" cx="30" cy="30.07" r="21.69"/><g class="cls-2"><path class="cls-3" d="M22.42,38.6A8.09,8.09,0,0,1,14,30.24a8.41,8.41,0,0,1,8.52-8.71c3.5,0,5.87,2,5.87,3.21A1.38,1.38,0,0,1,27,26.11a1.42,1.42,0,0,1-1.12-.6A4.67,4.67,0,0,0,22.29,24c-3.72,0-5.7,3.17-5.7,6.14,0,1.85,1.08,6,5.72,6a5.28,5.28,0,0,0,4.23-1.84,1.27,1.27,0,0,1,1.07-.58,1.51,1.51,0,0,1,1.48,1.41C29.09,36.21,26.47,38.6,22.42,38.6Z"/><path class="cls-3" d="M39.34,38.6a8.09,8.09,0,0,1-8.43-8.36,8.41,8.41,0,0,1,8.52-8.71c3.5,0,5.87,2,5.87,3.21A1.39,1.39,0,0,1,44,26.11a1.4,1.4,0,0,1-1.12-.6A4.67,4.67,0,0,0,39.21,24c-3.72,0-5.7,3.17-5.7,6.14,0,1.85,1.08,6,5.72,6a5.25,5.25,0,0,0,4.22-1.84,1.3,1.3,0,0,1,1.08-.58A1.51,1.51,0,0,1,46,35.06C46,36.21,43.39,38.6,39.34,38.6Z"/></g></svg>