<svg id="レイヤー_1" data-name="レイヤー 1" xmlns="http://www.w3.org/2000/svg" viewBox="0 0 60 60"><defs><style>.cls-1{fill:#048998;}.cls-1,.cls-2{isolation:isolate;}.cls-3{fill:#fdd365;stroke:#fdd365;stroke-miterlimit:10;}</style></defs><circle class="cls-1" cx="30" cy="30.07" r="21.69"/><g class="cls-2"><path class="cls-3" d="M37.27,39.78a1.65,1.65,0,0,1-1.61-1.05c-.34-.82-1.08-3.08-1.95-5.72-.06-.17-.14-.25-.31-.25-.46,0-1.62,0-2.89,0-1.7,0-3.59,0-4.19,0A.36.36,0,0,0,26,33c-.71,2.24-1.36,4.28-1.78,5.64a1.62,1.62,0,0,1-1.59,1.16A1.52,1.52,0,0,1,21,38.39c0-.51.09-.73,6.28-18.17a2.62,2.62,0,0,1,2.49-1.89,2.82,2.82,0,0,1,2.63,2c1.82,5.09,5.5,14.94,6.43,17.15a2.31,2.31,0,0,1,.17.82A1.61,1.61,0,0,1,37.27,39.78ZM32.55,29.5c-.88-2.65-1.73-5.23-2.18-6.62-.17-.51-.31-.79-.48-.79s-.32.25-.51.82C29,24,27.11,29.33,27.11,29.59c0,.11.06.17.23.17.57,0,1.61,0,2.6,0s2,0,2.41,0c.17,0,.23,0,.23-.11A.33.33,0,0,0,32.55,29.5Z"/></g></svg>