<svg id="レイヤー_1" data-name="レイヤー 1" xmlns="http://www.w3.org/2000/svg" viewBox="0 0 60 60"><defs><style>.cls-1{fill:#fcc73f;}.cls-2{fill:#3bb4c1;isolation:isolate;}</style></defs><path class="cls-1" d="M36.77,29.43c0,2.31-3.06,4.17-6.77,4.17s-6.73-1.86-6.77-4.17C17.55,30,13.1,35.43,13.1,42c0,6.95,5,7,11.06,7H35.84C42,49,46.9,49,46.9,42,46.9,35.43,42.45,30,36.77,29.43Z"/><path class="cls-1" d="M21.56,19.35a1.94,1.94,0,0,1,0,.24,15.1,15.1,0,0,0,2.47,7.24,10.16,10.16,0,0,0,1.68,1.87,6.27,6.27,0,0,0,8.54,0,9.77,9.77,0,0,0,1.67-1.87,15,15,0,0,0,2.48-7.24,1.94,1.94,0,0,1,0-.24c0-.27.06-.53.08-.81s0-.37,0-.56a10.24,10.24,0,0,0-.09-1.36A8.7,8.7,0,0,0,30,9a8.7,8.7,0,0,0-8.44,7.62,10.24,10.24,0,0,0-.1,1.36c0,.19,0,.38,0,.56S21.52,19.08,21.56,19.35Z"/><rect class="cls-2" x="5.59" y="43.7" width="48.81" height="8.3" rx="1"/></svg>