<svg id="レイヤー_1" data-name="レイヤー 1" xmlns="http://www.w3.org/2000/svg" viewBox="0 0 25.46 25.47"><defs><style>.cls-1{fill:#333;opacity:0.6;isolation:isolate;}</style></defs><path class="cls-1" d="M21.47,8.25a9.62,9.62,0,0,0,2.26-2.33,9,9,0,0,1-2.6.7,4.47,4.47,0,0,0,2-2.48,9.11,9.11,0,0,1-2.86,1.09,4.51,4.51,0,0,0-7.8,3.07h0a5.08,5.08,0,0,0,.12,1,12.8,12.8,0,0,1-9.3-4.72,4.5,4.5,0,0,0,1.39,6,4.4,4.4,0,0,1-2-.57v.06a4.49,4.49,0,0,0,3.61,4.42,5.24,5.24,0,0,1-1.18.16,8.09,8.09,0,0,1-.86-.07,4.52,4.52,0,0,0,4.22,3.12,9,9,0,0,1-5.6,1.93,10,10,0,0,1-1.09-.06,12.8,12.8,0,0,0,6.93,2A12.74,12.74,0,0,0,21.48,9V8.84c0-.2,0-.39,0-.59Z"/></svg>