<svg id="レイヤー_1" data-name="レイヤー 1" xmlns="http://www.w3.org/2000/svg" viewBox="0 0 25.46 25.47"><defs><style>.cls-1{fill:#333;opacity:0.6;isolation:isolate;}</style></defs><path class="cls-1" d="M24,7.07A2.94,2.94,0,0,0,21.9,5c-1.83-.5-9.17-.5-9.17-.5s-7.34,0-9.17.5A2.94,2.94,0,0,0,1.49,7.07,30.83,30.83,0,0,0,1,12.75a31,31,0,0,0,.49,5.69,2.9,2.9,0,0,0,2.07,2c1.83.49,9.17.49,9.17.49s7.34,0,9.17-.49a2.9,2.9,0,0,0,2.07-2,31,31,0,0,0,.5-5.69A30.84,30.84,0,0,0,24,7.07ZM10.33,16.24v-7l6.14,3.49Z"/></svg>