<svg xmlns="http://www.w3.org/2000/svg" xmlns:xlink="http://www.w3.org/1999/xlink" viewBox="0 0 1280 720"><defs><style>.cls-1{fill:#fffce8;}.cls-2{fill:#048998;}.cls-3{fill:none;stroke:#000;stroke-miterlimit:10;}.cls-14,.cls-4,.cls-9{fill:#fff;}.cls-4{fill-opacity:0.9;}.cls-10,.cls-5,.cls-6,.cls-9{isolation:isolate;}.cls-10,.cls-6{font-size:62.42px;fill:#333;font-family:Futura-Dem, Futura;}.cls-6{letter-spacing:0.24em;}.cls-7{letter-spacing:0.2em;}.cls-8{fill:#fdd365;}.cls-9{opacity:0.1;}.cls-10{letter-spacing:0.14em;}.cls-11{letter-spacing:0.16em;}.cls-12{letter-spacing:0.16em;}.cls-13{fill:#aab2ab;}.cls-15{fill:#004098;}.cls-16{fill:#97bdc0;}.cls-17{fill:#ccaa51;}.cls-18{clip-path:url(#clip-path);}</style><clipPath id="clip-path"><path class="cls-1" d="M1251.7,668.42H1061.06a1.17,1.17,0,0,1-1.18-1.17h0V541.86a1.18,1.18,0,0,1,1.18-1.18H1251.7a1.18,1.18,0,0,1,1.18,1.18h0V667.25A1.17,1.17,0,0,1,1251.7,668.42Z"/></clipPath></defs><g id="レイヤー_2" data-name="レイヤー 2"><rect class="cls-2" width="1280" height="720"/><rect class="cls-3" width="1280" height="720"/><rect class="cls-4" x="40.5" y="38.5" width="1199" height="643" rx="10"/><g id="グループ_1285" data-name="グループ 1285"><g id="TV-2" class="cls-5"><text class="cls-6" transform="translate(353.7 121.39)">T<tspan class="cls-7" x="42.45" y="0">V</tspan></text></g><g id="グループ_1284" data-name="グループ 1284"><g id="グループ_1283" data-name="グループ 1283"><circle id="楕円形_82" data-name="楕円形 82" class="cls-2" cx="316.52" cy="100.05" r="24.62"/><circle id="楕円形_83" data-name="楕円形 83" class="cls-2" cx="316.52" cy="100.05" r="24.62"/><g id="グループ_1282" data-name="グループ 1282"><g id="グループ_1280" data-name="グループ 1280"><path id="パス_8231" data-name="パス 8231" class="cls-8" d="M311.81,91.18l13.27,8.87-13.27,8.88Z"/></g><g id="グループ_1281" data-name="グループ 1281"><path id="パス_8232" data-name="パス 8232" class="cls-8" d="M311.81,91.18l13.27,8.87-13.27,8.88Z"/></g></g></g><path id="パス_8233" data-name="パス 8233" class="cls-9" d="M316.52,75.43a24.62,24.62,0,0,0-17.21,42.23l34.81-34.82A24.53,24.53,0,0,0,316.52,75.43Z"/></g><g id="TOGO" class="cls-5"><text class="cls-10" transform="translate(76.42 120.44)">T<tspan class="cls-11" x="36.46" y="0">O</tspan><tspan class="cls-12" x="96.44" y="0">GO</tspan></text></g></g><g id="layer1"><g id="g260"><path id="path3817" class="cls-13" d="M228.27,616.16l93.16.16c1.3,0,2.47-.19,2.47,2.6l-.12,30.68H225.91V618.81C225.91,617.43,226.05,616.16,228.27,616.16Z"/><path id="path263" d="M322.47,615.74H227.53a1.84,1.84,0,0,0-1.84,1.85v32.25a.41.41,0,0,0,.41.42h97.8a.41.41,0,0,0,.41-.42V617.59A1.84,1.84,0,0,0,322.47,615.74Zm-94.94.83h94.94a1,1,0,0,1,1,1V640H255.41a14.59,14.59,0,0,1-25.56,0h-3.33V617.59A1,1,0,0,1,227.53,616.57Z"/><g id="g265" class="cls-5"><path id="path267" class="cls-14" d="M286.35,642.66a3.84,3.84,0,0,1,.71.06,1.52,1.52,0,0,1,.55.23,1.1,1.1,0,0,1,.36.41,1.56,1.56,0,0,1,.12.64,1.15,1.15,0,0,1-.19.69,1.39,1.39,0,0,1-.55.45,1.26,1.26,0,0,1,.75.51,1.65,1.65,0,0,1,.09,1.58,1.28,1.28,0,0,1-.43.49,1.86,1.86,0,0,1-.62.29,2.82,2.82,0,0,1-.71.09h-2.65v-5.44Zm-.15,2.2a.79.79,0,0,0,.52-.16.56.56,0,0,0,.21-.49.57.57,0,0,0-.07-.31.55.55,0,0,0-.18-.19.79.79,0,0,0-.27-.1l-.3,0H285v1.27Zm.07,2.31a1.19,1.19,0,0,0,.33,0,.92.92,0,0,0,.29-.11.67.67,0,0,0,.19-.22.9.9,0,0,0-.16-.95,1,1,0,0,0-.63-.18H285v1.5Z"/><path id="path269" class="cls-14" d="M288.56,642.66h1.35l1.27,2.14,1.27-2.14h1.33l-2,3.35v2.09h-1.2V646Z"/></g><g id="g5908"><path id="path5906" class="cls-14" d="M253.84,631.85a11.21,11.21,0,1,1-22.41,0v0a11.21,11.21,0,0,1,22.41,0Z"/><g id="g5706"><path id="path5708" d="M251.74,622.73a12.39,12.39,0,0,1,3.73,9.12,12.24,12.24,0,0,1-3.66,9,12.68,12.68,0,0,1-9.19,3.82,13,13,0,0,1-12.83-12.86,12.57,12.57,0,0,1,3.8-9.12,12.2,12.2,0,0,1,9-3.73A12.37,12.37,0,0,1,251.74,622.73Zm-16.48,1.67a10.27,10.27,0,0,0-3.15,7.46,10.66,10.66,0,0,0,10.54,10.51,10.32,10.32,0,0,0,7.5-3.15,9.82,9.82,0,0,0,3-7.36,10.48,10.48,0,0,0-10.52-10.55A9.94,9.94,0,0,0,235.26,624.4Zm5.53,6.2a1.54,1.54,0,0,0-1.44-1.05c-1.14,0-1.7.77-1.7,2.29s.56,2.29,1.7,2.29A1.65,1.65,0,0,0,241,633l1.57.84a3.63,3.63,0,0,1-3.37,2,3.69,3.69,0,0,1-2.77-1.06,4.54,4.54,0,0,1,0-5.84,4,4,0,0,1,6.08.79Zm7.39,0a1.54,1.54,0,0,0-1.42-1.05c-1.15,0-1.73.77-1.73,2.29s.58,2.29,1.73,2.29a1.6,1.6,0,0,0,1.58-1.12l1.6.84a3.62,3.62,0,0,1-3.36,2,3.69,3.69,0,0,1-2.77-1.06,4,4,0,0,1-1-2.93,4,4,0,0,1,1.06-2.91,4,4,0,0,1,6.08.79Z"/></g></g><g id="g275"><circle id="circle277" class="cls-14" cx="288.37" cy="628.25" r="8.83"/><g id="g279"><path id="path281" d="M290.92,625.69a.61.61,0,0,0-.61-.61h-3.9a.61.61,0,0,0-.61.61v3.9h1.08v4.62h3v-4.62h1.08v-3.9Z"/><circle id="circle283" cx="288.36" cy="623.23" r="1.33"/></g><path id="path285" d="M288.35,618.52a9.08,9.08,0,0,0-6.71,2.77,9.33,9.33,0,0,0-2.81,6.76,9.59,9.59,0,0,0,9.52,9.53,9.4,9.4,0,0,0,6.82-2.83,9.62,9.62,0,0,0-.05-13.46A9.18,9.18,0,0,0,288.35,618.52Zm0,1.72a7.82,7.82,0,0,1,7.8,7.81,7.27,7.27,0,0,1-2.24,5.46,7.67,7.67,0,0,1-5.56,2.33,7.89,7.89,0,0,1-7.82-7.79,7.61,7.61,0,0,1,2.33-5.52A7.39,7.39,0,0,1,288.37,620.24Z"/></g></g></g><path class="cls-15" d="M117.27,615.55h6.65c6.68,0,12,4.13,12,11.07,0,7.56-4.59,11.46-12,11.46h-6.65Zm3.23,19.69h3.39c5.55,0,8.62-2.68,8.62-8.49,0-5.26-3.59-8.36-8.24-8.36H120.5Z"/><path class="cls-15" d="M140.58,615.55h6.1c4.68,0,7.91,1.52,7.91,5.68,0,3.1-1.81,4.65-4.65,5.36v.06c3.07.26,5.23,2.26,5.23,5.43,0,4.84-4,6-8.59,6h-6Zm3.23,9.62h1.77c3.14,0,5.78-.29,5.78-3.62,0-2.68-2.29-3.35-4.16-3.35h-3.39Zm0,10.26h2.42c2.9,0,5.52-.61,5.52-3.64,0-3.49-3.07-4-5.84-4h-2.1Z"/><path class="cls-15" d="M176.06,619.26a9,9,0,0,0-4.65-1.26c-5.2,0-8.65,3.75-8.65,8.82a8.4,8.4,0,0,0,8.49,8.81,11.1,11.1,0,0,0,4.91-1.1l.19,3.13a14.09,14.09,0,0,1-5.13.81c-7.14,0-11.88-4.59-11.88-11.75,0-6.94,5-11.56,11.91-11.56a12.47,12.47,0,0,1,5.07,1Z"/><path class="cls-15" d="M180.19,615.55h3.23v19.69h9.43v2.84H180.19Z"/><path class="cls-15" d="M206.6,618.94a9.85,9.85,0,0,0-4.23-.94c-1.8,0-3.94.65-3.94,3,0,4.32,9.69,3.32,9.69,10.74,0,4.81-3.71,6.72-8.23,6.72a15,15,0,0,1-4.62-.94l.32-3a13.77,13.77,0,0,0,4.69,1.1c1.83,0,4.42-1,4.42-3.68,0-5-9.69-3.65-9.69-10.65,0-4,3.17-6.14,7.23-6.14a15,15,0,0,1,4.81.81Z"/><path class="cls-15" d="M117.94,641.69h1.68c1.89,0,3.55.64,3.55,3.07s-1.66,3.08-3.55,3.08h-1.68Zm1.23,5.18h.69a2.11,2.11,0,0,0,0-4.21h-.69Z"/><path class="cls-15" d="M124.4,643.54a4.07,4.07,0,0,1,1.58-.34c1.38,0,2,.57,2,1.91v.58c0,.46,0,.8,0,1.14s0,.66,0,1h-1a6.78,6.78,0,0,1,0-.68h0a1.61,1.61,0,0,1-1.4.78,1.44,1.44,0,0,1-1.58-1.34,1.33,1.33,0,0,1,.77-1.3,3.59,3.59,0,0,1,1.52-.26h.66c0-.73-.33-1-1-1a2.38,2.38,0,0,0-1.4.49Zm1.38,3.54a1,1,0,0,0,.83-.4,1.56,1.56,0,0,0,.25-.94h-.51c-.53,0-1.32.09-1.32.79C125,646.91,125.36,647.08,125.78,647.08Z"/><path class="cls-15" d="M129.48,644.17h-.87v-.87h.87v-.9l1.18-.38v1.28h1.05v.87h-1.05v2.11c0,.39.11.75.56.75a1,1,0,0,0,.53-.13l0,.94a3.15,3.15,0,0,1-.87.1,1.33,1.33,0,0,1-1.44-1.47Z"/><path class="cls-15" d="M132.72,643.54a4.11,4.11,0,0,1,1.58-.34c1.38,0,1.95.57,1.95,1.91v.58c0,.46,0,.8,0,1.14s0,.66.06,1h-1a4.94,4.94,0,0,1-.06-.68h0a1.64,1.64,0,0,1-1.4.78,1.44,1.44,0,0,1-1.59-1.34,1.34,1.34,0,0,1,.78-1.3,3.56,3.56,0,0,1,1.52-.26h.65c0-.73-.32-1-1-1a2.36,2.36,0,0,0-1.4.49Zm1.39,3.54a1,1,0,0,0,.82-.4,1.5,1.5,0,0,0,.25-.94h-.51c-.53,0-1.31.09-1.31.79C133.36,646.91,133.68,647.08,134.11,647.08Z"/><path class="cls-15" d="M137.42,641.23h1.18v2.65h0a1.58,1.58,0,0,1,1.35-.68c1.39,0,1.91,1.11,1.91,2.36s-.52,2.38-1.91,2.38a1.64,1.64,0,0,1-1.39-.66h0v.56h-1.14Zm2.23,5.8c.77,0,1-.85,1-1.47s-.21-1.45-1-1.45-1.06.81-1.06,1.45S138.86,647,139.65,647Z"/><path class="cls-15" d="M143,643.54a4.11,4.11,0,0,1,1.58-.34c1.38,0,1.95.57,1.95,1.91v.58c0,.46,0,.8,0,1.14s0,.66.06,1h-1a4.94,4.94,0,0,1-.06-.68h0a1.64,1.64,0,0,1-1.4.78,1.44,1.44,0,0,1-1.59-1.34,1.34,1.34,0,0,1,.78-1.3,3.56,3.56,0,0,1,1.52-.26h.65c0-.73-.32-1-1-1a2.36,2.36,0,0,0-1.4.49Zm1.39,3.54a1,1,0,0,0,.82-.4,1.5,1.5,0,0,0,.25-.94H145c-.53,0-1.31.09-1.31.79C143.64,646.91,144,647.08,144.39,647.08Z"/><path class="cls-15" d="M150.39,644.25a2.93,2.93,0,0,0-1-.19c-.32,0-.7.11-.7.5,0,.72,2.05.27,2.05,1.9,0,1.06-.94,1.48-1.9,1.48a5.49,5.49,0,0,1-1.34-.19l.07-1a2.54,2.54,0,0,0,1.17.3c.3,0,.77-.11.77-.55,0-.89-2.05-.29-2.05-1.92,0-1,.85-1.41,1.78-1.41a6,6,0,0,1,1.28.16Z"/><path class="cls-15" d="M155.25,647.58a3.1,3.1,0,0,1-1.56.36,2.15,2.15,0,0,1-2.37-2.35,2.12,2.12,0,0,1,2.1-2.39c1.69,0,2.16,1.15,2.16,2.74h-3.13a1.18,1.18,0,0,0,1.29,1.14,3,3,0,0,0,1.51-.46Zm-.79-2.45c0-.58-.3-1.07-1-1.07a1,1,0,0,0-1.05,1.07Z"/><path class="cls-15" d="M163.54,647.75a6.05,6.05,0,0,1-1.4.19c-2,0-3.38-1-3.38-3.07a3.05,3.05,0,0,1,3.38-3.28,4,4,0,0,1,1.39.25l-.09,1a2.59,2.59,0,0,0-1.33-.33,2.22,2.22,0,0,0,0,4.43,3.39,3.39,0,0,0,1.34-.26Z"/><path class="cls-15" d="M168,647.58a3.1,3.1,0,0,1-1.56.36,2.15,2.15,0,0,1-2.37-2.35,2.11,2.11,0,0,1,2.1-2.39c1.69,0,2.16,1.15,2.16,2.74h-3.13a1.18,1.18,0,0,0,1.29,1.14,3,3,0,0,0,1.51-.46Zm-.8-2.45c0-.58-.3-1.07-1-1.07a1,1,0,0,0-1,1.07Z"/><path class="cls-15" d="M169.24,643.3h1.12v.62h0a1.7,1.7,0,0,1,1.49-.72c1.08,0,1.54.75,1.54,1.78v2.86h-1.18v-2.42c0-.56,0-1.31-.76-1.31s-1,.93-1,1.51v2.22h-1.18Z"/><path class="cls-15" d="M175,644.17h-.87v-.87H175v-.9l1.18-.38v1.28h1.05v.87h-1.05v2.11c0,.39.1.75.55.75a1.05,1.05,0,0,0,.54-.13l0,.94a3.18,3.18,0,0,1-.88.1,1.33,1.33,0,0,1-1.43-1.47Z"/><path class="cls-15" d="M181.68,647.58a3.06,3.06,0,0,1-1.55.36,2.15,2.15,0,0,1-2.37-2.35,2.11,2.11,0,0,1,2.1-2.39c1.68,0,2.16,1.15,2.16,2.74h-3.14a1.19,1.19,0,0,0,1.3,1.14,3,3,0,0,0,1.5-.46Zm-.79-2.45c0-.58-.3-1.07-1-1.07a1,1,0,0,0-1.05,1.07Z"/><path class="cls-15" d="M183,643.3H184v1h0a1.38,1.38,0,0,1,1.24-1.13,1.5,1.5,0,0,1,.36,0v1.19a1.25,1.25,0,0,0-.53-.1c-1,0-1,1.2-1,1.85v1.67H183Z"/><path class="cls-15" d="M118.27,653.31h-.87v-.86h.87v-.63a1.38,1.38,0,0,1,1.44-1.54,4.29,4.29,0,0,1,.86.09l-.09,1a1,1,0,0,0-.51-.16c-.4,0-.52.35-.52.7v.56h1v.86h-1V657h-1.18Z"/><path class="cls-15" d="M123.34,652.35a2.27,2.27,0,0,1,2.38,2.4,2.38,2.38,0,0,1-4.75,0A2.26,2.26,0,0,1,123.34,652.35Zm0,3.83c.91,0,1.15-.81,1.15-1.57a1.16,1.16,0,1,0-2.29,0C122.2,655.36,122.44,656.18,123.34,656.18Z"/><path class="cls-15" d="M126.67,652.45h1v1h0a1.38,1.38,0,0,1,1.24-1.13,1.5,1.5,0,0,1,.36,0v1.19a1.25,1.25,0,0,0-.53-.1c-1,0-1,1.2-1,1.85V657h-1.18Z"/><path class="cls-15" d="M132.63,650.84h1.23V656h2.39v1h-3.62Z"/><path class="cls-15" d="M137,650.5h1.18v1.12H137Zm0,2h1.18V657H137Z"/><path class="cls-15" d="M139.81,653.31h-.88v-.86h.88v-.63a1.38,1.38,0,0,1,1.44-1.54,4.37,4.37,0,0,1,.86.09l-.09,1a1,1,0,0,0-.51-.16c-.4,0-.52.35-.52.7v.56h1v.86h-1V657h-1.18Z"/><path class="cls-15" d="M146.44,656.73a3.1,3.1,0,0,1-1.56.36,2.15,2.15,0,0,1-2.37-2.35,2.12,2.12,0,0,1,2.11-2.39c1.68,0,2.15,1.15,2.15,2.73h-3.13a1.18,1.18,0,0,0,1.29,1.15,3,3,0,0,0,1.51-.46Zm-.79-2.46c0-.57-.3-1.06-1-1.06a1,1,0,0,0-1.05,1.06Z"/><path class="cls-15" d="M153.56,652a3.15,3.15,0,0,0-1.25-.27.86.86,0,0,0-1,.86c0,1.06,2.69.61,2.69,2.67,0,1.35-1.06,1.86-2.31,1.86a5.42,5.42,0,0,1-1.57-.24l.11-1.11a3,3,0,0,0,1.39.38c.47,0,1.1-.24,1.1-.79,0-1.17-2.7-.69-2.7-2.72,0-1.37,1.07-1.88,2.15-1.88a4.62,4.62,0,0,1,1.47.22Z"/><path class="cls-15" d="M158,653.43a1.73,1.73,0,0,0-.8-.17c-.73,0-1.2.58-1.2,1.44s.4,1.48,1.22,1.48a2.65,2.65,0,0,0,.91-.21l0,1a3.68,3.68,0,0,1-1.18.15,2.38,2.38,0,0,1,0-4.74,4.07,4.07,0,0,1,1.14.14Z"/><path class="cls-15" d="M159,650.5h1.18v1.12H159Zm0,2h1.18V657H159Z"/><path class="cls-15" d="M165,656.73a3.06,3.06,0,0,1-1.55.36,2.15,2.15,0,0,1-2.37-2.35,2.11,2.11,0,0,1,2.1-2.39c1.68,0,2.16,1.15,2.16,2.73h-3.14a1.19,1.19,0,0,0,1.3,1.15,3,3,0,0,0,1.5-.46Zm-.79-2.46c0-.57-.3-1.06-1-1.06a1,1,0,0,0-1,1.06Z"/><path class="cls-15" d="M166.3,652.45h1.12v.62h0a1.69,1.69,0,0,1,1.49-.72c1.07,0,1.54.75,1.54,1.77V657h-1.18v-2.43c0-.55,0-1.3-.77-1.3s-1,.93-1,1.51V657H166.3Z"/><path class="cls-15" d="M174.63,653.43a1.73,1.73,0,0,0-.8-.17c-.73,0-1.2.58-1.2,1.44s.4,1.48,1.22,1.48a2.65,2.65,0,0,0,.91-.21l.05,1a3.68,3.68,0,0,1-1.18.15,2.38,2.38,0,0,1,0-4.74,4.07,4.07,0,0,1,1.14.14Z"/><path class="cls-15" d="M179.24,656.73a3.13,3.13,0,0,1-1.56.36,2.15,2.15,0,0,1-2.37-2.35,2.11,2.11,0,0,1,2.1-2.39c1.68,0,2.16,1.15,2.16,2.73h-3.14a1.19,1.19,0,0,0,1.3,1.15,3.08,3.08,0,0,0,1.51-.46Zm-.8-2.46c0-.57-.3-1.06-1-1.06a1,1,0,0,0-1,1.06Z"/><rect class="cls-16" x="93.71" y="615.71" width="2.19" height="8.68"/><rect class="cls-16" x="99.02" y="617.78" width="1.76" height="8.68"/><rect class="cls-16" x="96.51" y="616.74" width="1.99" height="8.68"/><rect class="cls-16" x="90.64" y="614.68" width="2.34" height="8.68"/><rect class="cls-16" x="79.9" y="610.27" width="1.04" height="8.68"/><rect class="cls-16" x="101.18" y="618.81" width="1.48" height="8.68"/><rect class="cls-16" x="77.66" y="608.45" width="0.56" height="8.68"/><rect class="cls-16" x="75" y="605.03" width="0.31" height="8.68"/><rect class="cls-16" x="87.58" y="613.64" width="2.24" height="8.68"/><rect class="cls-16" x="82.27" y="611.53" width="1.48" height="8.68"/><rect class="cls-16" x="84.78" y="612.59" width="1.88" height="8.68"/><rect class="cls-16" x="104.33" y="620.88" width="0.76" height="8.68"/><path class="cls-16" d="M105.19,622v8.68c0-.13.28,0,.28,0V622Z"/><rect class="cls-16" x="102.97" y="619.84" width="1.15" height="8.68"/><path class="cls-16" d="M75,630.66a2,2,0,0,0,.33,1,4.78,4.78,0,0,0,1,1.06,10.31,10.31,0,0,0,1.37,1c.55.35,1.17.69,1.84,1s1.44.69,2.22,1,1.69.7,2.55,1,1.94.71,2.86,1c1.13.38,2.19.73,3.11,1s2,.64,3.12,1c.92.31,1.89.66,2.85,1s1.73.67,2.56,1,1.52.68,2.22,1,1.28.67,1.84,1a12.29,12.29,0,0,1,1.41,1,4.46,4.46,0,0,1,.91,1,2,2,0,0,1,.33,1V638.4a2,2,0,0,0-.33-1,4.64,4.64,0,0,0-.91-1,11.2,11.2,0,0,0-1.41-1c-.56-.35-1.18-.69-1.84-1s-1.45-.7-2.22-1-1.69-.7-2.56-1-1.93-.71-2.85-1c-1.13-.39-2.2-.73-3.12-1s-2-.64-3.11-1c-.92-.32-1.89-.67-2.86-1s-1.72-.67-2.55-1-1.52-.67-2.22-1-1.29-.68-1.84-1a10.31,10.31,0,0,1-1.37-1,4.78,4.78,0,0,1-1-1.06,2,2,0,0,1-.33-1Z"/><path class="cls-15" d="M105.47,647.08a2,2,0,0,1-.33,1,4.85,4.85,0,0,1-1,1.06,11.43,11.43,0,0,1-1.36,1c-.56.35-1.18.69-1.84,1s-1.45.69-2.22,1-1.69.7-2.56,1-1.93.71-2.85,1c-1.13.39-2.2.74-3.12,1s-2,.64-3.11,1c-.92.31-1.89.66-2.86,1s-1.72.67-2.55,1-1.52.67-2.22,1-1.29.68-1.84,1a11.2,11.2,0,0,0-1.41,1,4.64,4.64,0,0,0-.91,1,2,2,0,0,0-.33,1v-8.68a2,2,0,0,1,.33-1,4.64,4.64,0,0,1,.91-1,11.2,11.2,0,0,1,1.41-1c.55-.35,1.17-.69,1.84-1s1.44-.69,2.22-1,1.69-.7,2.55-1,1.94-.71,2.86-1c1.13-.39,2.19-.74,3.11-1s2-.64,3.12-1c.92-.31,1.89-.66,2.85-1s1.73-.67,2.56-1,1.52-.67,2.22-1,1.28-.68,1.84-1a11.43,11.43,0,0,0,1.36-1,4.85,4.85,0,0,0,1-1.06,2,2,0,0,0,.33-1Z"/><path class="cls-15" d="M105.47,630.66a2,2,0,0,1-.33,1,4.85,4.85,0,0,1-1,1.06,10.42,10.42,0,0,1-1.36,1c-.56.35-1.18.69-1.84,1s-1.45.69-2.22,1-1.69.7-2.56,1-1.93.71-2.85,1c-1.13.38-2.2.73-3.12,1s-2,.64-3.11,1c-.92.31-1.89.66-2.86,1s-1.72.67-2.55,1-1.52.68-2.22,1a19.49,19.49,0,0,0-1.84,1,12.29,12.29,0,0,0-1.41,1,4.46,4.46,0,0,0-.91,1,2,2,0,0,0-.33,1V638.4a2,2,0,0,1,.33-1,4.64,4.64,0,0,1,.91-1,11.2,11.2,0,0,1,1.41-1,19.49,19.49,0,0,1,1.84-1c.7-.36,1.44-.7,2.22-1s1.69-.7,2.55-1,1.94-.71,2.86-1c1.13-.39,2.19-.73,3.11-1s2-.64,3.12-1c.92-.32,1.89-.67,2.85-1s1.73-.67,2.56-1,1.52-.67,2.22-1,1.28-.68,1.84-1a10.42,10.42,0,0,0,1.36-1,4.85,4.85,0,0,0,1-1.06,2,2,0,0,0,.33-1Z"/><rect class="cls-15" x="84.57" y="615.71" width="2.19" height="8.68"/><rect class="cls-15" x="79.69" y="617.78" width="1.76" height="8.68"/><rect class="cls-15" x="81.96" y="616.74" width="1.99" height="8.68"/><rect class="cls-15" x="87.48" y="614.68" width="2.34" height="8.68"/><rect class="cls-15" x="99.53" y="610.27" width="1.04" height="8.68"/><rect class="cls-15" x="77.8" y="618.81" width="1.48" height="8.68"/><rect class="cls-15" x="102.25" y="608.45" width="0.56" height="8.68"/><rect class="cls-15" x="105.16" y="605.03" width="0.31" height="8.68"/><rect class="cls-15" x="90.64" y="613.64" width="2.24" height="8.68"/><rect class="cls-15" x="96.72" y="611.53" width="1.48" height="8.68"/><rect class="cls-15" x="93.81" y="612.59" width="1.88" height="8.68"/><rect class="cls-15" x="75.38" y="620.88" width="0.76" height="8.68"/><path class="cls-15" d="M75.28,622v8.68c0-.13-.28,0-.28,0V622Z"/><rect class="cls-15" x="76.34" y="619.84" width="1.15" height="8.68"/><g id="グループ_1664" data-name="グループ 1664"><g id="グループ_1411" data-name="グループ 1411"><rect id="長方形_578" data-name="長方形 578" class="cls-17" x="1125.08" y="679.96" width="61.95" height="16.66"/><path id="パス_8375" data-name="パス 8375" class="cls-8" d="M1261.74,685.4H1051a2,2,0,0,1-2-2V532.91a2,2,0,0,1,2-2h210.73a2,2,0,0,1,2,2h0V683.38A2,2,0,0,1,1261.74,685.4Z"/><path id="パス_8377" data-name="パス 8377" class="cls-8" d="M1213.65,705.68h-115.2v-8.94a1.57,1.57,0,0,1,1.57-1.57h112.07a1.56,1.56,0,0,1,1.56,1.57Z"/></g><path class="cls-1" d="M1251.7,668.42H1061.06a1.17,1.17,0,0,1-1.18-1.17h0V541.86a1.18,1.18,0,0,1,1.18-1.18H1251.7a1.18,1.18,0,0,1,1.18,1.18h0V667.25A1.17,1.17,0,0,1,1251.7,668.42Z"/><g class="cls-18"><rect class="cls-1" x="1054" y="537" width="205" height="140"/></g></g><g id="グループ_1284-2" data-name="グループ 1284"><g id="グループ_1283-2" data-name="グループ 1283"><circle id="楕円形_82-2" data-name="楕円形 82" class="cls-2" cx="1156.71" cy="605.71" r="21.5"/><circle id="楕円形_83-2" data-name="楕円形 83" class="cls-2" cx="1156.71" cy="605.71" r="21.5"/><g id="グループ_1282-2" data-name="グループ 1282"><g id="グループ_1280-2" data-name="グループ 1280"><path id="パス_8231-2" data-name="パス 8231" class="cls-8" d="M1152.6,598l11.59,7.75-11.59,7.75Z"/></g><g id="グループ_1281-2" data-name="グループ 1281"><path id="パス_8232-2" data-name="パス 8232" class="cls-8" d="M1152.6,598l11.59,7.75-11.59,7.75Z"/></g></g></g><path id="パス_8233-2" data-name="パス 8233" class="cls-9" d="M1156.71,584.21a21.49,21.49,0,0,0-15,36.87l30.39-30.4A21.43,21.43,0,0,0,1156.71,584.21Z"/></g></g></svg>