<svg id="レイヤー_1" data-name="レイヤー 1" xmlns="http://www.w3.org/2000/svg" xmlns:xlink="http://www.w3.org/1999/xlink" viewBox="0 0 386.63 276.75"><defs><style>.cls-1,.cls-20,.cls-25,.cls-26,.cls-27{fill:none;}.cls-12,.cls-2{fill:#048998;}.cls-2{opacity:0.1;isolation:isolate;}.cls-3{fill:#44959e;}.cls-4{fill:#52b4bf;}.cls-5{fill:#f5feff;}.cls-6{clip-path:url(#clip-path);}.cls-7{clip-path:url(#clip-path-2);}.cls-8{fill:#f6f5f5;}.cls-9{fill:#fdd365;}.cls-10{fill:#fff;}.cls-11{fill:#3bb4c1;}.cls-13{fill:#ededed;}.cls-14{clip-path:url(#clip-path-3);}.cls-15{fill:#fcdeca;}.cls-16{fill:#f5ccb0;}.cls-17{fill:#2e2a33;}.cls-18{fill:#fcd2b1;}.cls-19{fill:#047a87;}.cls-20,.cls-25{stroke:#fff;}.cls-20{stroke-miterlimit:10;stroke-width:0.47px;}.cls-21{fill:#333;}.cls-22{fill:#636363;}.cls-23{fill:#d7b55d;}.cls-24{clip-path:url(#clip-path-4);}.cls-26{stroke:#fdd365;}.cls-26,.cls-27{stroke-miterlimit:10.06;stroke-width:3.52px;}.cls-27{stroke:#048998;}.cls-28{clip-path:url(#clip-path-5);}.cls-29{clip-path:url(#clip-path-6);}</style><clipPath id="clip-path"><path class="cls-1" d="M307.79,196.11H69.41a1.49,1.49,0,0,1-1.48-1.47h0V37.85a1.48,1.48,0,0,1,1.48-1.48H307.79a1.47,1.47,0,0,1,1.47,1.48h0V194.63A1.47,1.47,0,0,1,307.79,196.11Z"/></clipPath><clipPath id="clip-path-2"><path class="cls-1" d="M58.87,14H307c3.44,0,4.32,4.13,6.23,5.76V209.47c0,2.56-2.79,4.63-6.23,4.63H58.87c-3.44,0-6.22-2.07-6.22-4.63V19.8C53.4,17.53,55.43,14,58.87,14Z"/></clipPath><clipPath id="clip-path-3"><rect class="cls-1" x="190.74" y="90" width="130.02" height="106.35" rx="2"/></clipPath><clipPath id="clip-path-4"><path class="cls-1" d="M41.4,29.83c.88,3.07-4.09,7.19-15,10.32s-17.3,2.27-18.18-.8L.09,11c.88,3.06,7.28,3.92,18.18.79s15.88-7.24,15-10.31Z"/></clipPath><clipPath id="clip-path-5"><rect class="cls-1" x="17.81" y="234.75" width="39.5" height="33.14" transform="translate(-79.78 25.92) rotate(-19)"/></clipPath><clipPath id="clip-path-6"><rect class="cls-1" x="5.86" y="203.34" width="42.26" height="33.14" transform="matrix(0.95, -0.33, 0.33, 0.95, -70.13, 20.77)"/></clipPath></defs><g id="グループ_1933" data-name="グループ 1933"><path id="パス_8841" data-name="パス 8841" class="cls-2" d="M337.13,235.79c4.31-18.45-1.2-28.47-3-43.28-2.24-18.08-3.35-30.9,9-44.33,20.11-22,61.65-82.3-8.82-116.47-25.26-12.24-55.34-6.26-80.36,2.94-21.29,7.83-42.74-4.14-61.61-11.3C169.07,14.55,144.07,7.73,119,5.21,67.34,0,37.28,21.11,15.21,58.7,8.55,70.06-1.14,88.47,4.36,120.91c7.43,43.77,41.65,71.12,93.88,87,12,3.63,24.42,5.26,36.54,8.27a165.63,165.63,0,0,1,36.36,13.68c26.89,13.92,50.26,35.3,79.42,43.44a95.22,95.22,0,0,0,47.51.89C317.51,269.53,332.58,255.26,337.13,235.79Z"/><g id="グループ_1664" data-name="グループ 1664"><g id="グループ_1411" data-name="グループ 1411"><rect id="長方形_578" data-name="長方形 578" class="cls-3" x="151.94" y="207.29" width="73.82" height="19.86"/><path id="パス_8375" data-name="パス 8375" class="cls-4" d="M314.79,213.77H63.68a2.39,2.39,0,0,1-2.4-2.4V32.06a2.39,2.39,0,0,1,2.4-2.4H314.79a2.39,2.39,0,0,1,2.4,2.4h0V211.37A2.39,2.39,0,0,1,314.79,213.77Z"/><path id="パス_8376" data-name="パス 8376" class="cls-5" d="M307.79,196.11H69.9a1.47,1.47,0,0,1-1.47-1.47h0V37.85a1.48,1.48,0,0,1,1.47-1.48H307.79a1.47,1.47,0,0,1,1.47,1.47h0V194.63A1.47,1.47,0,0,1,307.79,196.11Z"/><path id="パス_8377" data-name="パス 8377" class="cls-4" d="M257.49,237.94H120.21V227.29a1.87,1.87,0,0,1,1.86-1.87H255.62a1.87,1.87,0,0,1,1.87,1.87Z"/></g><g class="cls-6"><g id="マスクグループ_18" data-name="マスクグループ 18"><g id="グループ_1663" data-name="グループ 1663"><g id="グループ_1313" data-name="グループ 1313"><g class="cls-7"><g id="グループ_1299" data-name="グループ 1299"><g id="グループ_1667" data-name="グループ 1667"><path id="パス_8237" data-name="パス 8237" class="cls-8" d="M48.55,11H331V227.64H48.55Z"/></g><g id="グループ_1677" data-name="グループ 1677"><rect id="長方形_582" data-name="長方形 582" class="cls-9" x="67.4" y="177.95" width="76.77" height="6.49"/></g></g></g><rect id="長方形_562-2" data-name="長方形 562-2" class="cls-10" x="80.44" y="51.27" width="178" height="106" rx="5"/><g id="グループ_1305" data-name="グループ 1305"><path id="パス_8249" data-name="パス 8249" class="cls-9" d="M119.44,67.45A16.09,16.09,0,1,1,110,96.55l9.45-13Z"/><path id="パス_8250" data-name="パス 8250" class="cls-11" d="M110,96.55a16.09,16.09,0,0,1,0-26l9.45,13Z"/><path id="パス_8251" data-name="パス 8251" class="cls-12" d="M110,70.52a16.14,16.14,0,0,1,9.45-3.07V83.54Z"/></g><rect id="長方形_564" data-name="長方形 564" class="cls-13" x="147.44" y="71.28" width="72" height="5" rx="2"/><rect id="長方形_708" data-name="長方形 708" class="cls-13" x="147.44" y="80.28" width="58" height="5" rx="2"/><rect id="長方形_709" data-name="長方形 709" class="cls-13" x="147.44" y="89.28" width="48" height="5" rx="2"/><rect id="長方形_565" data-name="長方形 565" class="cls-13" x="147.44" y="110.28" width="74" height="5" rx="2"/><rect id="長方形_711" data-name="長方形 711" class="cls-13" x="147.44" y="119.28" width="84" height="5" rx="2"/><rect id="長方形_712" data-name="長方形 712" class="cls-13" x="147.44" y="128.28" width="63" height="5" rx="2"/><g id="グループ_1306" data-name="グループ 1306"><rect id="長方形_566" data-name="長方形 566" class="cls-12" x="103.21" y="125.02" width="3.61" height="11.31"/><rect id="長方形_567" data-name="長方形 567" class="cls-12" x="110.43" y="121.79" width="3.61" height="14.54"/><rect id="長方形_568" data-name="長方形 568" class="cls-12" x="118.56" y="116.94" width="3.61" height="19.39"/><rect id="長方形_569" data-name="長方形 569" class="cls-9" x="125.78" y="112.09" width="3.61" height="24.24"/><rect id="長方形_571" data-name="長方形 571" class="cls-12" x="133.44" y="106.28" width="3.61" height="30"/></g><g class="cls-14"><g id="グループ_1673" data-name="グループ 1673"><g id="グループ_1672" data-name="グループ 1672"><g id="グループ_1671" data-name="グループ 1671"><g id="グループ_1670" data-name="グループ 1670"><g id="グループ_1669" data-name="グループ 1669"><path id="パス_8843-2" data-name="パス 8843-2" class="cls-9" d="M305.23,208c-4.94-12.91-8-40.52-13.23-47.85a45.42,45.42,0,0,0-6.29-6.11V154l-.41-.24a19.17,19.17,0,0,0-2-1.3l-3.51-2-11.61-6.91-10.61.93-13,7.34a20.48,20.48,0,0,0-6.54,5.85c1.71,32.14,3.57,41.38,5.7,63.9h40l-.79,1.69,10.65,10.09,11.2-18A9.87,9.87,0,0,0,305.23,208Zm-19.53,7.69.23,1.07-.23.5Zm1.41-1.47-.21-26.75,4,21.11Z"/><path id="パス_8844" data-name="パス 8844" class="cls-15" d="M270.91,145.15c0-.17,0-.34,0-.52V133.18H256.51v11.45c0,.11,0,.21,0,.32-2.25,1.34-5.19,3-5.19,3s.17,8.72,13.3,8c11.56-.62,11.49-7.7,11.49-7.7Z"/><path id="パス_8845" data-name="パス 8845" class="cls-16" d="M256.51,139a8.62,8.62,0,0,0,7.36,4.51,8,8,0,0,0,7.09-4.6Z"/><path id="パス_8846" data-name="パス 8846" class="cls-15" d="M263.89,140.87h-.46a13.71,13.71,0,0,1-13.72-13.18l-.26-7.32a13.73,13.73,0,0,1,13.17-14.26h1.54c5.9,0,14,6.48,13.71,14.27l-.26,7.32A13.72,13.72,0,0,1,263.89,140.87Z"/><path id="パス_8847" data-name="パス 8847" class="cls-15" d="M253.92,125.92a4.49,4.49,0,1,1-4.79-4.17,4.49,4.49,0,0,1,4.79,4.17Z"/><path id="パス_8848" data-name="パス 8848" class="cls-15" d="M282.36,125.92a4.49,4.49,0,1,1-4.79-4.17,4.49,4.49,0,0,1,4.79,4.17Z"/><path id="パス_8849" data-name="パス 8849" class="cls-17" d="M248.67,112l1.06,11.26h1.7l.22-5.92s.89-2.27,4.85-7.12c0,0,2.58,6.61,18.62,5.32l.93,7.46,1.65-.17.88-8a20,20,0,0,0,.3-8c-1-5.51-5.49-8.56-18.44-4.67-1.08.32,1.12.11,0,0C256.71,101.82,247,101.77,248.67,112Z"/><g id="グループ_1668" data-name="グループ 1668"><path id="パス_8850" data-name="パス 8850" class="cls-18" d="M203.67,159.65s-7-9.79-9-9.73,5.23,10.24,5.23,10.24Z"/><path id="パス_8851" data-name="パス 8851" class="cls-18" d="M207.16,164.05l-3-2.42-3.72,3.86,4.05,3.58,3.56-2.69Z"/><path id="パス_8852" data-name="パス 8852" class="cls-9" d="M251.34,148s-12.64,3.33-15.87,7.95S222.28,177,222.28,177l-13.8-13.68S202,168,202,169s19.3,22.35,22.59,21.26,14.05-19.3,14.05-19.3-.08,46.38-.47,49.71,12.87-2.52,18-31.47Z"/><path id="パス_8853" data-name="パス 8853" class="cls-18" d="M197.93,165.23a5.35,5.35,0,0,1-3.06-5.32c.26-3.94,6.74-4,8.17-1.89s3.64,5.49,2.6,6.54a4.35,4.35,0,0,1-2.72,1.07Z"/></g></g></g></g></g></g></g><g id="グループ_1678" data-name="グループ 1678"><path id="パス_8409" data-name="パス 8409" class="cls-19" d="M66.44,183.73v10.64a2.36,2.36,0,0,0,2.54,2.1h239a2.36,2.36,0,0,0,2.55-2.1V183.73Z"/><path id="パス_8410" data-name="パス 8410" class="cls-10" d="M97.43,189.83l-3.1,1.77-3.1,1.81v-7.16l3.1,1.77Z"/><line id="線_4" data-name="線 4" class="cls-20" x1="99.44" y1="185.53" x2="99.44" y2="194.22"/><g id="グループ_1419" data-name="グループ 1419"><rect id="長方形_585" data-name="長方形 585" class="cls-10" x="78.48" y="186.34" width="1.34" height="6.4"/><rect id="長方形_586" data-name="長方形 586" class="cls-10" x="81.34" y="186.34" width="1.34" height="6.4"/></g></g></g></g></g></g></g><g id="グループ_1697" data-name="グループ 1697"><g id="グループ_1681" data-name="グループ 1681"><g id="グループ_991" data-name="グループ 991"><g id="長方形_407" data-name="長方形 407"><rect id="長方形_424" data-name="長方形 424" class="cls-1" x="342.62" y="118.2" width="35.66" height="44.51" transform="matrix(0.16, -0.99, 0.99, 0.16, 165.33, 474.49)"/><rect id="長方形_715-2" data-name="長方形 715-2" class="cls-21" x="344.09" y="117.39" width="35.76" height="44.64" rx="1" transform="translate(168.42 475.98) rotate(-81.18)"/><path id="長方形_716" data-name="長方形 716" class="cls-22" d="M343.69,118.52l42,6.65a1,1,0,0,1,.83,1.15l-.61,3.84h0l-44-7h0l.61-3.85A1,1,0,0,1,343.69,118.52Z"/></g></g><rect id="長方形_431" data-name="長方形 431" class="cls-12" x="359.88" y="118.1" width="2.1" height="31.02" transform="matrix(0.16, -0.99, 0.99, 0.16, 172.51, 469.19)"/><rect id="長方形_432" data-name="長方形 432" class="cls-23" x="359.01" y="123.62" width="2.1" height="31.02" transform="translate(166.32 472.99) rotate(-81)"/><rect id="長方形_433" data-name="長方形 433" class="cls-12" x="347.7" y="138.06" width="2.1" height="9.89" transform="matrix(0.16, -0.99, 0.99, 0.16, 152.95, 465.08)"/><rect id="長方形_717" data-name="長方形 717" class="cls-11" x="358.02" y="141.27" width="2.1" height="6.73" transform="translate(160.04 476.65) rotate(-81)"/><rect id="長方形_714" data-name="長方形 714" class="cls-11" x="347.44" y="143" width="2.1" height="11.12" transform="translate(147.24 469.52) rotate(-81)"/></g><g id="グループ_1691" data-name="グループ 1691"><path id="合体_1-2" data-name="合体 1-2" class="cls-9" d="M8,39.43.27,12l0-.05v0L0,11.05a3.8,3.8,0,0,0,.18.47C0,8.46,6.55,4.17,15.3,1.71s16.56-2.22,18,.47a4.37,4.37,0,0,0-.09-.5l8,28.39c.86,3.07-4.13,7.16-15,10.24S8.86,42.5,8,39.43Z"/><g class="cls-24"><g id="マスクグループ_19" data-name="マスクグループ 19"><g id="グループ_1695" data-name="グループ 1695"><path id="パス_8860" data-name="パス 8860" class="cls-25" d="M2,21.09c2.48,8.66,37.6-1.18,35.06-10"/><path id="パス_8861" data-name="パス 8861" class="cls-25" d="M4.58,30.05c2.48,8.66,37.6-1.18,35.06-10"/><path id="パス_8862" data-name="パス 8862" class="cls-25" d="M-.89,11c2.48,8.66,37.6-1.18,35.06-10"/></g></g></g></g><g id="グループ_1696" data-name="グループ 1696"><g id="グループ_1682" data-name="グループ 1682"><line id="線_5-2" data-name="線 5-2" class="cls-26" x1="20.43" y1="234.08" x2="29.59" y2="230.95"/><line id="線_6-2" data-name="線 6-2" class="cls-26" x1="22.56" y1="240.3" x2="31.72" y2="237.17"/><line id="線_7-2" data-name="線 7-2" class="cls-26" x1="24.61" y1="246.54" x2="33.77" y2="243.41"/><line id="線_8-2" data-name="線 8-2" class="cls-27" x1="29.63" y1="230.93" x2="38.79" y2="227.81"/><line id="線_9-2" data-name="線 9-2" class="cls-27" x1="31.76" y1="237.15" x2="40.92" y2="234.03"/><line id="線_10-2" data-name="線 10-2" class="cls-27" x1="33.81" y1="243.4" x2="42.97" y2="240.27"/></g><g id="グループ_1686" data-name="グループ 1686"><g class="cls-28"><g id="グループ_1685" data-name="グループ 1685"><g id="グループ_1684" data-name="グループ 1684"><g id="グループ_1683" data-name="グループ 1683"><path id="パス_8855-2" data-name="パス 8855-2" class="cls-12" d="M53.3,265a2.34,2.34,0,0,1-3-1.46c-2.38-7-7.74-8.18-14-9.6-6.57-1.49-14-3.19-17.2-12.51s1.69-15.7,6-21.22c3.86-4.91,7.21-9.16,5.11-15.31a2.35,2.35,0,1,1,4.44-1.52c2.92,8.57-1.75,14.5-5.86,19.73s-7.68,9.76-5.27,16.81c2.33,6.83,7.64,8,13.8,9.44C44,250.88,51.54,252.59,54.76,262a2.34,2.34,0,0,1-1.46,3Z"/></g><path id="パス_8856-2" data-name="パス 8856-2" class="cls-9" d="M32.16,272.23a2.35,2.35,0,0,1-3-1.46c-3.22-9.45,1.67-15.39,6-20.63,4-4.87,7.48-9.07,5.14-15.91-2.4-7-8-8.45-14.44-10.08s-13.78-3.46-16.7-12a2.34,2.34,0,1,1,4.44-1.51c2.1,6.15,7.34,7.47,13.4,9,6.81,1.72,14.52,3.65,17.75,13.11s-1.68,15.22-6,20.42c-4,4.91-7.54,9.15-5.17,16.12a2.34,2.34,0,0,1-1.46,3Z"/></g></g></g></g><g id="グループ_1689" data-name="グループ 1689"><g class="cls-29"><g id="グループ_1688" data-name="グループ 1688"><g id="グループ_1687" data-name="グループ 1687"><path id="パス_8857-2" data-name="パス 8857-2" class="cls-9" d="M32.15,272.23a2.35,2.35,0,0,1-3-1.46h0c-3.23-9.45,1.67-15.39,6-20.63,4-4.87,7.48-9.07,5.15-15.91-2.4-7-8-8.45-14.45-10.08s-13.77-3.46-16.7-12a2.35,2.35,0,1,1,4.41-1.6.36.36,0,0,1,0,.09c2.09,6.15,7.33,7.47,13.4,9,6.8,1.72,14.51,3.66,17.74,13.11s-1.68,15.22-6,20.42c-4.05,4.91-7.55,9.16-5.17,16.12a2.35,2.35,0,0,1-1.46,3Z"/><path id="パス_8858-2" data-name="パス 8858-2" class="cls-12" d="M53.29,265a2.36,2.36,0,0,1-3-1.47h0c-2.38-7-7.74-8.18-14-9.6-6.57-1.49-14-3.19-17.2-12.5-3.23-9.47,1.69-15.71,6-21.23,3.86-4.91,7.2-9.16,5.1-15.31a2.35,2.35,0,0,1,4.44-1.52c2.93,8.57-1.74,14.5-5.85,19.73s-7.68,9.76-5.28,16.81c2.34,6.83,7.65,8,13.8,9.45,6.62,1.5,14.13,3.21,17.35,12.66a2.35,2.35,0,0,1-1.46,3Z"/></g></g></g></g></g></g></g></svg>