<svg xmlns="http://www.w3.org/2000/svg" xmlns:xlink="http://www.w3.org/1999/xlink" width="404.462" height="285.919" viewBox="0 0 404.462 285.919">
  <defs>
    <style>
      .cls-1 {
        fill: #e60c38;
        opacity: 0.11;
      }

      .cls-2, .cls-25, .cls-32, .cls-5 {
        fill: none;
      }

      .cls-2 {
        clip-rule: evenodd;
      }

      .cls-3 {
        fill: #e04242;
      }

      .cls-4 {
        fill: #fdd365;
      }

      .cls-16, .cls-28, .cls-6 {
        fill: #048998;
      }

      .cls-6 {
        opacity: 0.1;
      }

      .cls-7 {
        fill: #44959e;
      }

      .cls-8 {
        fill: #52b4bf;
      }

      .cls-9 {
        fill: #f5feff;
      }

      .cls-10 {
        clip-path: url(#clip-path);
      }

      .cls-11 {
        clip-path: url(#clip-path-2);
      }

      .cls-12 {
        fill: #f6f5f5;
      }

      .cls-13, .cls-33, .cls-34 {
        fill: #fff;
      }

      .cls-14 {
        fill: #54585a;
      }

      .cls-15, .cls-30 {
        fill: #3bb4c1;
      }

      .cls-17 {
        fill: #ededed;
      }

      .cls-18 {
        clip-path: url(#clip-path-3);
      }

      .cls-19 {
        fill: #fcdeca;
      }

      .cls-20 {
        fill: #f5ccb0;
      }

      .cls-21 {
        fill: #2e2a33;
      }

      .cls-22 {
        fill: #fcd2b1;
      }

      .cls-23 {
        fill: #0c2c40;
      }

      .cls-24 {
        fill: #047a87;
      }

      .cls-25, .cls-32 {
        stroke: #fff;
      }

      .cls-25, .cls-33, .cls-34 {
        stroke-miterlimit: 10;
      }

      .cls-25 {
        stroke-width: 0.465px;
      }

      .cls-26 {
        fill: #333;
      }

      .cls-27 {
        fill: #636363;
      }

      .cls-28, .cls-29, .cls-30, .cls-37, .cls-38, .cls-39, .cls-40 {
        isolation: isolate;
      }

      .cls-29 {
        fill: #d7b55d;
      }

      .cls-31 {
        clip-path: url(#clip-path-4);
      }

      .cls-33 {
        stroke: #fdd365;
      }

      .cls-33, .cls-34 {
        stroke-width: 3.5px;
      }

      .cls-34 {
        stroke: #048998;
      }

      .cls-35 {
        clip-path: url(#clip-path-5);
      }

      .cls-36 {
        clip-path: url(#clip-path-6);
      }

      .cls-37 {
        filter: url(#パス_8858);
      }

      .cls-38 {
        filter: url(#パス_8857);
      }

      .cls-39 {
        filter: url(#パス_8856);
      }

      .cls-40 {
        filter: url(#パス_8855);
      }

      .cls-41 {
        filter: url(#線_10);
      }

      .cls-42 {
        filter: url(#線_9);
      }

      .cls-43 {
        filter: url(#線_8);
      }

      .cls-44 {
        filter: url(#線_7);
      }

      .cls-45 {
        filter: url(#線_6);
      }

      .cls-46 {
        filter: url(#線_5);
      }

      .cls-47 {
        filter: url(#合体_1);
      }

      .cls-48 {
        filter: url(#長方形_715);
      }

      .cls-49 {
        filter: url(#パス_8843);
      }

      .cls-50 {
        filter: url(#長方形_562);
      }
    </style>
    <clipPath id="clip-path">
      <path id="パス_8840" data-name="パス 8840" class="cls-1" d="M732.691,302.653H494.316a1.474,1.474,0,0,1-1.476-1.474V144.393a1.474,1.474,0,0,1,1.476-1.473H732.691a1.474,1.474,0,0,1,1.477,1.473V301.18A1.476,1.476,0,0,1,732.691,302.653Z" transform="translate(-492.84 -142.92)"/>
    </clipPath>
    <clipPath id="clip-path-2">
      <path id="パス_8239" data-name="パス 8239" class="cls-2" d="M517.439-611.588H765.59c3.437,0,4.314,4.129,6.223,5.76v189.671c0,2.555-2.786,4.626-6.223,4.626H517.439c-3.437,0-6.223-2.071-6.223-4.626V-605.828C511.967-608.1,514-611.588,517.439-611.588Z" transform="translate(-511.216 611.588)"/>
    </clipPath>
    <filter id="長方形_562" x="86.183" y="56.941" width="187" height="115" filterUnits="userSpaceOnUse">
      <feOffset dy="1" input="SourceAlpha"/>
      <feGaussianBlur stdDeviation="1.5" result="blur"/>
      <feFlood flood-opacity="0.161"/>
      <feComposite operator="in" in2="blur"/>
      <feComposite in="SourceGraphic"/>
    </filter>
    <clipPath id="clip-path-3">
      <rect id="長方形_710" data-name="長方形 710" class="cls-3" width="130.023" height="106.347" rx="2" transform="translate(0 0)"/>
    </clipPath>
    <filter id="パス_8843" x="239.23" y="146.686" width="85.727" height="107.799" filterUnits="userSpaceOnUse">
      <feOffset dy="3" input="SourceAlpha"/>
      <feGaussianBlur stdDeviation="3" result="blur-2"/>
      <feFlood flood-opacity="0.161"/>
      <feComposite operator="in" in2="blur-2"/>
      <feComposite in="SourceGraphic"/>
    </filter>
    <filter id="長方形_715" x="336.924" y="123.53" width="67.538" height="60.179" filterUnits="userSpaceOnUse">
      <feOffset dy="4" input="SourceAlpha"/>
      <feGaussianBlur stdDeviation="3" result="blur-3"/>
      <feFlood flood-opacity="0.302"/>
      <feComposite operator="in" in2="blur-3"/>
      <feComposite in="SourceGraphic"/>
    </filter>
    <filter id="合体_1" x="0" y="0" width="62.24" height="66.068" filterUnits="userSpaceOnUse">
      <feOffset dy="3" input="SourceAlpha"/>
      <feGaussianBlur stdDeviation="3" result="blur-4"/>
      <feFlood flood-opacity="0.161"/>
      <feComposite operator="in" in2="blur-4"/>
      <feComposite in="SourceGraphic"/>
    </filter>
    <clipPath id="clip-path-4">
      <path id="パス_8863" data-name="パス 8863" class="cls-4" d="M34.522,29.487c0,3.191-5.916,5.778-17.261,5.778S0,32.678,0,29.487V0C0,3.191,5.916,5.778,17.261,5.778S34.522,3.191,34.522,0Z"/>
    </clipPath>
    <filter id="線_5" x="21.593" y="230.991" width="28.239" height="24.442" filterUnits="userSpaceOnUse">
      <feOffset dy="3" input="SourceAlpha"/>
      <feGaussianBlur stdDeviation="3" result="blur-5"/>
      <feFlood flood-opacity="0.161"/>
      <feComposite operator="in" in2="blur-5"/>
      <feComposite in="SourceGraphic"/>
    </filter>
    <filter id="線_6" x="23.721" y="237.17" width="28.239" height="24.442" filterUnits="userSpaceOnUse">
      <feOffset dy="3" input="SourceAlpha"/>
      <feGaussianBlur stdDeviation="3" result="blur-6"/>
      <feFlood flood-opacity="0.161"/>
      <feComposite operator="in" in2="blur-6"/>
      <feComposite in="SourceGraphic"/>
    </filter>
    <filter id="線_7" x="25.784" y="243.371" width="28.239" height="24.442" filterUnits="userSpaceOnUse">
      <feOffset dy="3" input="SourceAlpha"/>
      <feGaussianBlur stdDeviation="3" result="blur-7"/>
      <feFlood flood-opacity="0.161"/>
      <feComposite operator="in" in2="blur-7"/>
      <feComposite in="SourceGraphic"/>
    </filter>
    <filter id="線_8" x="30.733" y="227.844" width="28.239" height="24.442" filterUnits="userSpaceOnUse">
      <feOffset dy="3" input="SourceAlpha"/>
      <feGaussianBlur stdDeviation="3" result="blur-8"/>
      <feFlood flood-opacity="0.161"/>
      <feComposite operator="in" in2="blur-8"/>
      <feComposite in="SourceGraphic"/>
    </filter>
    <filter id="線_9" x="32.86" y="234.023" width="28.239" height="24.442" filterUnits="userSpaceOnUse">
      <feOffset dy="3" input="SourceAlpha"/>
      <feGaussianBlur stdDeviation="3" result="blur-9"/>
      <feFlood flood-opacity="0.161"/>
      <feComposite operator="in" in2="blur-9"/>
      <feComposite in="SourceGraphic"/>
    </filter>
    <filter id="線_10" x="34.923" y="240.224" width="28.239" height="24.442" filterUnits="userSpaceOnUse">
      <feOffset dy="3" input="SourceAlpha"/>
      <feGaussianBlur stdDeviation="3" result="blur-10"/>
      <feFlood flood-opacity="0.161"/>
      <feComposite operator="in" in2="blur-10"/>
      <feComposite in="SourceGraphic"/>
    </filter>
    <clipPath id="clip-path-5">
      <rect id="長方形_718" data-name="長方形 718" class="cls-5" width="39.501" height="33.141"/>
    </clipPath>
    <filter id="パス_8855" x="10.136" y="203.031" width="64.993" height="89.422" filterUnits="userSpaceOnUse">
      <feOffset dy="3" input="SourceAlpha"/>
      <feGaussianBlur stdDeviation="3" result="blur-11"/>
      <feFlood flood-opacity="0.161"/>
      <feComposite operator="in" in2="blur-11"/>
      <feComposite in="SourceGraphic"/>
    </filter>
    <filter id="パス_8856" x="10.136" y="203.031" width="64.993" height="89.422" filterUnits="userSpaceOnUse">
      <feOffset dy="3" input="SourceAlpha"/>
      <feGaussianBlur stdDeviation="3" result="blur-12"/>
      <feFlood flood-opacity="0.161"/>
      <feComposite operator="in" in2="blur-12"/>
      <feComposite in="SourceGraphic"/>
    </filter>
    <clipPath id="clip-path-6">
      <rect id="長方形_719" data-name="長方形 719" class="cls-5" width="42.263" height="33.141"/>
    </clipPath>
    <filter id="パス_8857" x="10.133" y="203.032" width="64.992" height="89.421" filterUnits="userSpaceOnUse">
      <feOffset dy="3" input="SourceAlpha"/>
      <feGaussianBlur stdDeviation="3" result="blur-13"/>
      <feFlood flood-opacity="0.161"/>
      <feComposite operator="in" in2="blur-13"/>
      <feComposite in="SourceGraphic"/>
    </filter>
    <filter id="パス_8858" x="10.133" y="203.032" width="64.992" height="89.421" filterUnits="userSpaceOnUse">
      <feOffset dy="3" input="SourceAlpha"/>
      <feGaussianBlur stdDeviation="3" result="blur-14"/>
      <feFlood flood-opacity="0.161"/>
      <feComposite operator="in" in2="blur-14"/>
      <feComposite in="SourceGraphic"/>
    </filter>
  </defs>
  <g id="グループ_1893" data-name="グループ 1893" transform="translate(-75.317 -82.559)">
    <path id="パス_8841" data-name="パス 8841" class="cls-6" d="M543.966,231.363c4.309-18.447-1.2-28.472-3.038-43.278-2.241-18.083-3.356-30.9,8.951-44.334,20.107-21.962,61.647-82.3-8.824-116.463C515.8,15.045,485.718,21.021,460.7,30.222c-21.29,7.829-42.745-4.137-61.611-11.3C375.908,10.122,350.908,3.3,325.828.782c-51.65-5.2-81.716,15.9-103.777,53.492C215.384,65.633,205.7,84.048,211.2,116.482c7.422,43.776,41.65,71.123,93.874,86.985,11.955,3.631,24.419,5.261,36.546,8.263a165.845,165.845,0,0,1,36.356,13.689c26.89,13.914,50.26,35.3,79.422,43.437a95.251,95.251,0,0,0,47.506.892C524.346,265.1,539.417,250.834,543.966,231.363Z" transform="translate(-121.274 96.149)"/>
    <g id="グループ_1664" data-name="グループ 1664" transform="translate(146.842 121.384)">
      <g id="グループ_1411" data-name="グループ 1411" transform="translate(0 0)">
        <rect id="長方形_578" data-name="長方形 578" class="cls-7" width="73.822" height="19.857" transform="translate(90.656 177.627)"/>
        <path id="パス_8375" data-name="パス 8375" class="cls-8" d="M718.362,300.741H467.248a2.4,2.4,0,0,1-2.4-2.4V119.028a2.4,2.4,0,0,1,2.4-2.4H718.362a2.4,2.4,0,0,1,2.4,2.4V298.343A2.4,2.4,0,0,1,718.362,300.741Z" transform="translate(-464.85 -116.63)"/>
        <path id="パス_8376" data-name="パス 8376" class="cls-9" d="M732.2,302.653H494.313a1.472,1.472,0,0,1-1.473-1.474V144.393a1.472,1.472,0,0,1,1.473-1.473H732.2a1.472,1.472,0,0,1,1.474,1.473V301.18A1.474,1.474,0,0,1,732.2,302.653Z" transform="translate(-485.692 -136.206)"/>
        <path id="パス_8377" data-name="パス 8377" class="cls-8" d="M832.881,895.728H695.6V885.079a1.87,1.87,0,0,1,1.869-1.869H831.012a1.87,1.87,0,0,1,1.869,1.869Z" transform="translate(-636.674 -687.45)"/>
      </g>
      <g id="マスクグループ_18" data-name="マスクグループ 18" class="cls-10" transform="translate(6.655 6.714)">
        <g id="グループ_1663" data-name="グループ 1663" transform="translate(-15.286 -22.334)">
          <g id="グループ_1313" data-name="グループ 1313" transform="translate(0 0)">
            <g id="グループ_1299" data-name="グループ 1299" class="cls-11" transform="translate(0)">
              <g id="グループ_1667" data-name="グループ 1667" transform="translate(-4.094 -3.043)">
                <path id="パス_8237" data-name="パス 8237" class="cls-12" d="M506.216-616.588H788.674V-399.95H506.216Z" transform="translate(-506.216 616.588)"/>
              </g>
              <g id="グループ_1677" data-name="グループ 1677" transform="translate(14.756 163.909)">
                <rect id="長方形_582" data-name="長方形 582" class="cls-4" width="76.769" height="6.493" transform="translate(0)"/>
              </g>
            </g>
            <g class="cls-50" transform="matrix(1, 0, 0, 1, -62.89, -23.21)">
              <rect id="長方形_562-2" data-name="長方形 562" class="cls-13" width="178" height="106" rx="5" transform="translate(90.68 60.44)"/>
            </g>
            <path id="パス_8248" data-name="パス 8248" class="cls-14" d="M210.412,275.031" transform="translate(-46.902 -94.404)"/>
            <g id="グループ_1305" data-name="グループ 1305" transform="translate(50.709 53.412)">
              <path id="パス_8249" data-name="パス 8249" class="cls-4" d="M-57.553-114a16.085,16.085,0,0,1,15.3,11.115A16.085,16.085,0,0,1-48.1-84.9a16.085,16.085,0,0,1-18.909,0l9.455-13.013Z" transform="translate(73.638 114)"/>
              <path id="パス_8250" data-name="パス 8250" class="cls-15" d="M-107.369-66.2A16.085,16.085,0,0,1-114-79.215a16.085,16.085,0,0,1,6.631-13.013l9.455,13.013Z" transform="translate(114 95.3)"/>
              <path id="パス_8251" data-name="パス 8251" class="cls-16" d="M-67.008-110.928A16.085,16.085,0,0,1-57.553-114v16.085Z" transform="translate(73.638 114)"/>
            </g>
            <rect id="長方形_564" data-name="長方形 564" class="cls-17" width="72" height="5" rx="2" transform="translate(94.789 57.236)"/>
            <rect id="長方形_708" data-name="長方形 708" class="cls-17" width="58" height="5" rx="2" transform="translate(94.789 66.236)"/>
            <rect id="長方形_709" data-name="長方形 709" class="cls-17" width="48" height="5" rx="2" transform="translate(94.789 75.236)"/>
            <rect id="長方形_565" data-name="長方形 565" class="cls-17" width="74" height="5" rx="2" transform="translate(94.789 96.236)"/>
            <rect id="長方形_711" data-name="長方形 711" class="cls-17" width="84" height="5" rx="2" transform="translate(94.789 105.236)"/>
            <rect id="長方形_712" data-name="長方形 712" class="cls-17" width="63" height="5" rx="2" transform="translate(94.789 114.236)"/>
            <g id="グループ_1306" data-name="グループ 1306" transform="translate(50.561 91.772)">
              <rect id="長方形_566" data-name="長方形 566" class="cls-16" width="3.611" height="11.31" transform="translate(0 19.204)"/>
              <rect id="長方形_567" data-name="長方形 567" class="cls-16" width="3.611" height="14.541" transform="translate(7.223 15.973)"/>
              <rect id="長方形_568" data-name="長方形 568" class="cls-16" width="3.611" height="19.388" transform="translate(15.349 11.126)"/>
              <rect id="長方形_569" data-name="長方形 569" class="cls-4" width="3.611" height="24.235" transform="translate(22.572 6.279)"/>
              <rect id="長方形_571" data-name="長方形 571" class="cls-16" width="3.61" height="30" transform="translate(30.228 0.464)"/>
            </g>
            <g id="グループ_1673" data-name="グループ 1673" class="cls-18" transform="translate(138.091 75.964)">
              <g id="グループ_1672" data-name="グループ 1672" transform="translate(3.63 10.446)">
                <g id="グループ_1671" data-name="グループ 1671" transform="translate(0)">
                  <g id="グループ_1670" data-name="グループ 1670">
                    <g id="グループ_1669" data-name="グループ 1669">
                      <g class="cls-49" transform="matrix(1, 0, 0, 1, -204.61, -109.62)">
                        <path id="パス_8843-2" data-name="パス 8843" class="cls-4" d="M302.033,306.091c-4.943-12.912-7.949-40.524-13.234-47.847a44.8,44.8,0,0,0-6.29-6.112v-.084l-.406-.24a20.407,20.407,0,0,0-2.01-1.3l-3.51-1.978-11.615-6.907-10.606.926-13.028,7.344a20.418,20.418,0,0,0-6.541,5.843c1.706,32.141,3.566,41.38,5.7,63.906h40.024l-.787,1.69,10.649,10.089,11.2-18.027A9.906,9.906,0,0,0,302.033,306.091ZM237.5,278.931Zm45,34.85.234,1.068-.234.5Zm1.414-1.469-.214-26.754,3.951,21.113Z" transform="translate(13.44 -88.93)"/>
                      </g>
                      <path id="パス_8844" data-name="パス 8844" class="cls-19" d="M252.957,246.836c.017-.177.054-.347.054-.528V234.863H238.559v11.445c0,.112.026.216.032.326-2.249,1.333-5.186,2.989-5.186,2.989s.167,8.722,13.3,8.024c11.551-.617,11.482-7.7,11.482-7.7Z" transform="translate(-176.42 -202.132)"/>
                      <path id="パス_8845" data-name="パス 8845" class="cls-20" d="M236.772,238.7a8.632,8.632,0,0,0,7.36,4.516,8.018,8.018,0,0,0,7.092-4.606Z" transform="translate(-174.633 -200.144)"/>
                      <path id="パス_8846" data-name="パス 8846" class="cls-19" d="M246.609,251.946h-.468a13.724,13.724,0,0,1-13.714-13.181l-.262-7.325a13.725,13.725,0,0,1,13.714-14.268h.992c5.9,0,14.021,6.481,13.714,14.268l-.262,7.325A13.726,13.726,0,0,1,246.609,251.946Z" transform="translate(-177.084 -211.522)"/>
                      <path id="パス_8847" data-name="パス 8847" class="cls-19" d="M238.19,231.573A4.489,4.489,0,1,1,233.4,227.4,4.489,4.489,0,0,1,238.19,231.573Z" transform="translate(-178.641 -206.099)"/>
                      <path id="パス_8848" data-name="パス 8848" class="cls-19" d="M256.77,231.573a4.489,4.489,0,1,1-4.785-4.173A4.488,4.488,0,0,1,256.77,231.573Z" transform="translate(-168.78 -206.099)"/>
                      <path id="パス_8849" data-name="パス 8849" class="cls-21" d="M231.72,225.06l1.059,11.26h1.7l.22-5.915s.888-2.27,4.857-7.129c0,0,2.579,6.617,18.614,5.327l.927,7.462,1.659-.179.871-8.023a19.8,19.8,0,0,0,.3-7.96c-1-5.509-5.484-8.563-18.438-4.676-1.078.323,1.118.113,0,0C239.765,214.848,230,214.8,231.72,225.06Z" transform="translate(-177.421 -213.481)"/>
                      <g id="グループ_1668" data-name="グループ 1668" transform="translate(0 47.507)">
                        <path id="パス_8850" data-name="パス 8850" class="cls-22" d="M471.384,282.962s-6.983-9.794-8.956-9.733,5.226,10.236,5.226,10.236Z" transform="translate(-462.087 -271.266)"/>
                        <path id="パス_8851" data-name="パス 8851" class="cls-22" d="M482.612,302.173l-2.957-2.423-3.725,3.867,4.048,3.575,3.562-2.688Z" transform="translate(-469.82 -286.08)"/>
                        <path id="パス_8852" data-name="パス 8852" class="cls-4" d="M528.726,268.463s-12.639,3.332-15.87,7.949-13.189,21.116-13.189,21.116l-13.8-13.679s-6.475,4.643-6.475,5.619,19.3,22.352,22.595,21.253,14.045-19.3,14.045-19.3-.08,46.381-.472,49.718,12.875-2.525,18.013-31.471Z" transform="translate(-471.753 -268.463)"/>
                        <path id="パス_8853" data-name="パス 8853" class="cls-22" d="M466.254,297.017a5.366,5.366,0,0,1-3.063-5.323c.269-3.933,6.74-4.03,8.174-1.889s3.641,5.491,2.6,6.541a4.375,4.375,0,0,1-2.719,1.077Z" transform="translate(-462.695 -279.746)"/>
                      </g>
                    </g>
                    <path id="パス_8854" data-name="パス 8854" class="cls-23" d="M254.88,292.28" transform="translate(-165.023 -171.66)"/>
                  </g>
                </g>
              </g>
            </g>
            <g id="グループ_1678" data-name="グループ 1678" transform="translate(13.79 169.687)">
              <path id="パス_8409" data-name="パス 8409" class="cls-24" d="M318.2,634.2v10.647a2.365,2.365,0,0,0,2.546,2.1H559.7a2.365,2.365,0,0,0,2.547-2.1V634.2Z" transform="translate(-318.2 -634.2)"/>
              <path id="パス_8410" data-name="パス 8410" class="cls-13" d="M371.206,643.581l-3.1,1.766-3.1,1.814V640l3.1,1.766Z" transform="translate(-340.213 -637.478)"/>
              <line id="線_4" data-name="線 4" class="cls-25" y2="8.689" transform="translate(32.998 1.806)"/>
              <g id="グループ_1419" data-name="グループ 1419" transform="translate(12.04 2.617)">
                <rect id="長方形_585" data-name="長方形 585" class="cls-13" width="1.337" height="6.397" transform="translate(0 0)"/>
                <rect id="長方形_586" data-name="長方形 586" class="cls-13" width="1.337" height="6.397" transform="translate(2.865 0)"/>
              </g>
            </g>
          </g>
        </g>
      </g>
    </g>
    <g id="グループ_1697" data-name="グループ 1697" transform="translate(84.317 88.559)">
      <g id="グループ_1681" data-name="グループ 1681" transform="translate(342.502 122.53) rotate(9)">
        <g id="グループ_991" data-name="グループ 991" transform="translate(0 0)">
          <g id="長方形_407" data-name="長方形 407" transform="translate(0 0)">
            <rect id="長方形_424" data-name="長方形 424" class="cls-5" width="44.509" height="35.656"/>
            <g class="cls-48" transform="matrix(0.99, -0.16, 0.16, 0.99, -367.28, -71.96)">
              <rect id="長方形_715-2" data-name="長方形 715" class="cls-26" width="44.509" height="35.656" rx="1" transform="translate(351.5 128.53) rotate(9)"/>
            </g>
            <path id="長方形_716" data-name="長方形 716" class="cls-27" d="M1,0H43.509a1,1,0,0,1,1,1V4.894a0,0,0,0,1,0,0H0a0,0,0,0,1,0,0V1A1,1,0,0,1,1,0Z"/>
          </g>
        </g>
        <rect id="長方形_431" data-name="長方形 431" class="cls-28" width="31.015" height="2.097" transform="translate(6.152 9.936)"/>
        <rect id="長方形_432" data-name="長方形 432" class="cls-29" width="31.015" height="2.097" transform="translate(6.152 15.529)"/>
        <rect id="長方形_433" data-name="長方形 433" class="cls-28" width="9.885" height="2.097" transform="translate(6.152 21.122)"/>
        <rect id="長方形_717" data-name="長方形 717" class="cls-30" width="6.731" height="2.097" transform="translate(18.176 21.122)"/>
        <rect id="長方形_714" data-name="長方形 714" class="cls-30" width="11.116" height="2.097" transform="translate(6.152 26.658)"/>
      </g>
      <g id="グループ_1691" data-name="グループ 1691" transform="translate(0 9.516) rotate(-16)">
        <g class="cls-47" transform="matrix(0.96, 0.28, -0.28, 0.96, -4.37, -17.4)">
          <path id="合体_1-2" data-name="合体 1" class="cls-4" d="M0,34.328V5.829c0-.017,0-.035,0-.052s0-.035,0-.052V4.841a2.55,2.55,0,0,0,.049.5C.722,2.352,8.171,0,17.262,0S33.8,2.353,34.473,5.339a2.549,2.549,0,0,0,.049-.5V34.328c0,3.191-5.916,5.777-17.262,5.777S0,37.519,0,34.328Z" transform="translate(9 15.52) rotate(-16)"/>
        </g>
        <g id="マスクグループ_19" data-name="マスクグループ 19" class="cls-31" transform="translate(0 4.841)">
          <g id="グループ_1695" data-name="グループ 1695" transform="translate(-0.932 -0.299)">
            <path id="パス_8860" data-name="パス 8860" class="cls-32" d="M0,0C0,9.009,36.471,9.23,36.471,0" transform="translate(0 10.524)"/>
            <path id="パス_8861" data-name="パス 8861" class="cls-32" d="M0,0C0,9.009,36.471,9.23,36.471,0" transform="translate(0 19.842)"/>
            <path id="パス_8862" data-name="パス 8862" class="cls-32" d="M0,0C0,9.009,36.471,9.23,36.471,0"/>
          </g>
        </g>
      </g>
      <g id="グループ_1696" data-name="グループ 1696" transform="translate(2.86 214.287) rotate(-19)">
        <g id="グループ_1682" data-name="グループ 1682" transform="translate(11.186 26.606)">
          <g class="cls-46" transform="matrix(0.95, 0.33, -0.33, 0.95, 49.32, -238.75)">
            <line id="線_5-2" data-name="線 5" class="cls-33" x2="9.624" transform="translate(31.16 241.78) rotate(-19)"/>
          </g>
          <g class="cls-45" transform="matrix(0.95, 0.33, -0.33, 0.95, 49.32, -238.75)">
            <line id="線_6-2" data-name="線 6" class="cls-33" x2="9.624" transform="translate(33.29 247.96) rotate(-19)"/>
          </g>
          <g class="cls-44" transform="matrix(0.95, 0.33, -0.33, 0.95, 49.32, -238.75)">
            <line id="線_7-2" data-name="線 7" class="cls-33" x2="9.624" transform="translate(35.35 254.16) rotate(-19)"/>
          </g>
          <g class="cls-43" transform="matrix(0.95, 0.33, -0.33, 0.95, 49.32, -238.75)">
            <line id="線_8-2" data-name="線 8" class="cls-34" x2="9.624" transform="translate(40.3 238.63) rotate(-19)"/>
          </g>
          <g class="cls-42" transform="matrix(0.95, 0.33, -0.33, 0.95, 49.32, -238.75)">
            <line id="線_9-2" data-name="線 9" class="cls-34" x2="9.624" transform="translate(42.43 244.81) rotate(-19)"/>
          </g>
          <g class="cls-41" transform="matrix(0.95, 0.33, -0.33, 0.95, 49.32, -238.75)">
            <line id="線_10-2" data-name="線 10" class="cls-34" x2="9.624" transform="translate(44.49 251.01) rotate(-19)"/>
          </g>
        </g>
        <g id="グループ_1686" data-name="グループ 1686" transform="translate(1.151 33.141)">
          <g id="グループ_1685" data-name="グループ 1685" class="cls-35">
            <g id="グループ_1684" data-name="グループ 1684" transform="translate(6.545 -33.141)">
              <g id="グループ_1683" data-name="グループ 1683" transform="translate(0 0)">
                <g class="cls-40" transform="matrix(0.95, 0.33, -0.33, 0.95, 52.81, -212.15)">
                  <path id="パス_8855-2" data-name="パス 8855" class="cls-16" d="M24.544,66.282a2.334,2.334,0,0,1-2.334-2.334c0-7.318-4.653-10.188-10.04-13.512C6.466,46.917,0,42.929,0,33.141,0,23.2,6.634,18.9,12.487,15.1,17.7,11.719,22.21,8.8,22.21,2.334a2.334,2.334,0,0,1,4.668,0c0,9-6.3,13.082-11.851,16.686S4.668,25.739,4.668,33.141c0,7.182,4.612,10.027,9.953,13.322,5.745,3.545,12.257,7.562,12.257,17.485A2.333,2.333,0,0,1,24.544,66.282Z" transform="translate(19.14 217.78) rotate(-19)"/>
                </g>
              </g>
              <g class="cls-39" transform="matrix(0.95, 0.33, -0.33, 0.95, 52.81, -212.15)">
                <path id="パス_8856-2" data-name="パス 8856" class="cls-4" d="M2.334,66.282A2.334,2.334,0,0,1,0,63.948c0-9.923,6.512-13.941,12.257-17.485,5.341-3.295,9.953-6.14,9.953-13.322,0-7.4-4.8-10.516-10.359-14.122S0,11.332,0,2.334a2.334,2.334,0,0,1,4.668,0c0,6.462,4.505,9.385,9.723,12.769,5.853,3.8,12.487,8.1,12.487,18.038,0,9.788-6.465,13.776-12.17,17.3C9.321,53.76,4.668,56.63,4.668,63.948A2.333,2.333,0,0,1,2.334,66.282Z" transform="translate(19.14 217.78) rotate(-19)"/>
              </g>
            </g>
          </g>
        </g>
        <g id="グループ_1689" data-name="グループ 1689" transform="translate(0 0)">
          <g id="グループ_1688" data-name="グループ 1688" class="cls-36">
            <g id="グループ_1687" data-name="グループ 1687" transform="translate(7.693 0)">
              <g class="cls-38" transform="matrix(0.95, 0.33, -0.33, 0.95, 52.81, -212.15)">
                <path id="パス_8857-2" data-name="パス 8857" class="cls-4" d="M2.334,66.282A2.333,2.333,0,0,1,0,63.948c0-9.923,6.512-13.941,12.257-17.485,5.341-3.295,9.953-6.14,9.953-13.322,0-7.4-4.8-10.516-10.359-14.122S0,11.332,0,2.334a2.334,2.334,0,1,1,4.667,0c0,6.462,4.506,9.385,9.723,12.769,5.854,3.8,12.487,8.1,12.487,18.038,0,9.788-6.465,13.776-12.17,17.3C9.321,53.76,4.667,56.63,4.667,63.948A2.333,2.333,0,0,1,2.334,66.282Z" transform="translate(19.13 217.78) rotate(-19)"/>
              </g>
              <g class="cls-37" transform="matrix(0.95, 0.33, -0.33, 0.95, 52.81, -212.15)">
                <path id="パス_8858-2" data-name="パス 8858" class="cls-16" d="M24.544,66.282a2.333,2.333,0,0,1-2.334-2.334c0-7.318-4.654-10.188-10.04-13.512C6.465,46.917,0,42.929,0,33.141,0,23.2,6.634,18.9,12.487,15.1,17.7,11.719,22.21,8.8,22.21,2.334a2.334,2.334,0,0,1,4.667,0c0,9-6.3,13.082-11.851,16.686S4.667,25.739,4.667,33.141c0,7.182,4.612,10.027,9.953,13.322,5.746,3.545,12.257,7.562,12.257,17.485A2.333,2.333,0,0,1,24.544,66.282Z" transform="translate(19.13 217.78) rotate(-19)"/>
              </g>
            </g>
          </g>
        </g>
      </g>
    </g>
  </g>
</svg>
