<svg xmlns="http://www.w3.org/2000/svg" viewBox="0 0 1280 720"><defs><style>.cls-1{fill:#3ebcc9;}.cls-2{fill:none;}.cls-3,.cls-4,.cls-7{isolation:isolate;}.cls-4,.cls-7{font-size:67.68px;font-family:Futura-Dem, Futura;}.cls-11,.cls-4,.cls-6,.cls-7{fill:#fff;}.cls-4{letter-spacing:0.24em;}.cls-5{letter-spacing:0.2em;}.cls-7{letter-spacing:0.14em;}.cls-8{letter-spacing:0.16em;}.cls-9{letter-spacing:0.16em;}.cls-10,.cls-11{opacity:0.4;}</style></defs><g id="レイヤー_2" data-name="レイヤー 2"><rect class="cls-1" width="1280" height="720"/><rect class="cls-2" width="1280" height="720"/><g id="TV-3" class="cls-3"><text class="cls-4" transform="translate(887.11 375.95)">T<tspan class="cls-5" x="46.02" y="0">V</tspan></text></g><text class="cls-4" transform="translate(887.11 375.95)">T<tspan class="cls-5" x="46.02" y="0">V</tspan></text><path class="cls-6" d="M847.1,326.2a26.5,26.5,0,1,0,26.5,26.5A26.5,26.5,0,0,0,847.1,326.2ZM842,362.25v-19.1l14.29,9.55Z"/><text class="cls-7" transform="translate(588.79 374.93)">T<tspan class="cls-8" x="39.52" y="0">O</tspan><tspan class="cls-9" x="104.56" y="0">GO</tspan></text><path class="cls-6" d="M372.26,318.33h10.79c15.6,0,21.77,9,21.77,21.71,0,15.79-10.54,21.84-24.95,21.84h-7.61Zm4.3,39.8h3.56c12.35,0,20.4-5,20.4-18.34s-7.93-17.71-17.66-17.71h-6.3Z"/><path class="cls-6" d="M413.87,318.33h10.36c7.11,0,13.79,2.38,13.79,10.74,0,5.55-2.56,8.85-7.93,9.91v.13c5.49,1,9.24,4.61,9.24,10.35,0,9.48-7.74,12.42-16.79,12.42h-8.67Zm4.31,39.8h4.49c5.8,0,12.35-1.56,12.35-8.48,0-7.73-6.67-8.55-13-8.55h-3.8Zm.12-20.77h4.81c4.55,0,10.6-1.19,10.6-8.11,0-6.3-5.8-7.17-9.48-7.17H418.3Z"/><path class="cls-6" d="M478.82,323.2c-2.74-1.43-6.67-1.87-9.73-1.87-11.29,0-17.66,8-17.66,18.78,0,11,6.18,18.77,17.66,18.77,2.87,0,7.24-.37,9.73-1.87l.25,3.74c-2.37,1.44-7.24,1.88-10,1.88-13.72,0-22-9.05-22-22.52,0-13.23,8.48-22.52,22-22.52,2.56,0,7.74.43,10,1.62Z"/><path class="cls-6" d="M490.18,318.33h4.31v39.8H512v3.75H490.18Z"/><path class="cls-6" d="M517.07,356.33a17.16,17.16,0,0,0,9.61,2.55c5.36,0,9.79-2.74,9.79-8.92,0-8.54-20-9.6-20-21,0-7,6.11-11.35,13.79-11.35a26,26,0,0,1,8.54,1.43l-.68,3.93a17.77,17.77,0,0,0-7.93-1.62c-4.49,0-9.42,1.87-9.42,7.48,0,8.74,20,8.8,20,21.53,0,8.79-7.55,12.29-14.29,12.29a24.85,24.85,0,0,1-9.86-1.88Z"/><path class="cls-6" d="M373.74,368.85H377c3.65,0,6.86,1.23,6.86,5.94s-3.21,5.94-6.86,5.94h-3.25Zm2.39,10h1.32a4.07,4.07,0,0,0,0-8.13h-1.32Z"/><path class="cls-6" d="M386.22,372.43a7.86,7.86,0,0,1,3-.67c2.67,0,3.78,1.11,3.78,3.7v1.12c0,.89,0,1.55,0,2.2s.05,1.27.1,2h-2a12.54,12.54,0,0,1-.1-1.31h0a3.14,3.14,0,0,1-2.71,1.52,2.79,2.79,0,0,1-3.06-2.61,2.58,2.58,0,0,1,1.5-2.5,7,7,0,0,1,2.94-.51H391c0-1.41-.63-1.89-2-1.89a4.58,4.58,0,0,0-2.71,1Zm2.67,6.84a1.94,1.94,0,0,0,1.6-.78,2.9,2.9,0,0,0,.48-1.81h-1c-1,0-2.53.17-2.53,1.52C387.45,379,388.08,379.27,388.89,379.27Z"/><path class="cls-6" d="M396,373.64h-1.68V372H396v-1.75l2.29-.74V372h2v1.67h-2v4.08c0,.75.2,1.45,1.07,1.45a2.08,2.08,0,0,0,1-.24l.06,1.8a5.78,5.78,0,0,1-1.68.21A2.58,2.58,0,0,1,396,378.1Z"/><path class="cls-6" d="M402.31,372.43a7.82,7.82,0,0,1,3.05-.67c2.67,0,3.77,1.11,3.77,3.7v1.12c0,.89,0,1.55,0,2.2s.05,1.27.1,2h-2a12.54,12.54,0,0,1-.1-1.31h0a3.14,3.14,0,0,1-2.71,1.52,2.79,2.79,0,0,1-3.06-2.61,2.58,2.58,0,0,1,1.49-2.5,7.07,7.07,0,0,1,2.95-.51h1.26c0-1.41-.63-1.89-2-1.89a4.55,4.55,0,0,0-2.7,1Zm2.67,6.84a2,2,0,0,0,1.6-.78,2.9,2.9,0,0,0,.48-1.81h-1c-1,0-2.54.17-2.54,1.52C403.53,379,404.16,379.27,405,379.27Z"/><path class="cls-6" d="M411.38,368h2.28v5.12h0a3.08,3.08,0,0,1,2.62-1.33c2.69,0,3.68,2.15,3.68,4.57s-1,4.61-3.68,4.61a3.19,3.19,0,0,1-2.69-1.28h0v1.07h-2.22Zm4.31,11.2c1.5,0,1.92-1.64,1.92-2.84s-.4-2.79-1.89-2.79-2,1.56-2,2.79S414.17,379.17,415.69,379.17Z"/><path class="cls-6" d="M422.18,372.43a7.77,7.77,0,0,1,3-.67c2.68,0,3.78,1.11,3.78,3.7v1.12c0,.89,0,1.55,0,2.2s.05,1.27.11,2h-2a8.71,8.71,0,0,1-.1-1.31h0a3.14,3.14,0,0,1-2.7,1.52,2.8,2.8,0,0,1-3.07-2.61,2.58,2.58,0,0,1,1.5-2.5,7,7,0,0,1,2.94-.51h1.26c0-1.41-.62-1.89-2-1.89a4.61,4.61,0,0,0-2.71,1Zm2.67,6.84a2,2,0,0,0,1.6-.78,3,3,0,0,0,.47-1.81h-1c-1,0-2.54.17-2.54,1.52C423.4,379,424,379.27,424.85,379.27Z"/><path class="cls-6" d="M436.46,373.81a5.57,5.57,0,0,0-2-.38c-.62,0-1.35.22-1.35,1,0,1.4,4,.51,4,3.68,0,2-1.82,2.86-3.68,2.86a10.33,10.33,0,0,1-2.59-.38l.14-1.87a5,5,0,0,0,2.25.58c.58,0,1.49-.22,1.49-1.07,0-1.72-4-.55-4-3.71,0-1.89,1.65-2.73,3.44-2.73a10.56,10.56,0,0,1,2.48.33Z"/><path class="cls-6" d="M445.84,380.24a6,6,0,0,1-3,.7c-2.9,0-4.58-1.67-4.58-4.55,0-2.53,1.34-4.63,4.07-4.63,3.24,0,4.17,2.23,4.17,5.3h-6.06a2.29,2.29,0,0,0,2.5,2.21,5.9,5.9,0,0,0,2.91-.89Zm-1.53-4.75c-.07-1.1-.58-2.06-1.86-2.06a2,2,0,0,0-2,2.06Z"/><path class="cls-6" d="M461.86,380.56a11.81,11.81,0,0,1-2.71.38c-3.84,0-6.52-1.92-6.52-5.94s2.49-6.35,6.52-6.35a7.87,7.87,0,0,1,2.69.49l-.17,2a4.91,4.91,0,0,0-2.57-.63c-2.45,0-4,1.87-4,4.31a3.91,3.91,0,0,0,4,4.24,6.66,6.66,0,0,0,2.61-.5Z"/><path class="cls-6" d="M470.44,380.24a6,6,0,0,1-3,.7c-2.9,0-4.58-1.67-4.58-4.55,0-2.53,1.34-4.63,4.06-4.63,3.25,0,4.17,2.23,4.17,5.3H465a2.28,2.28,0,0,0,2.5,2.21,5.9,5.9,0,0,0,2.91-.89Zm-1.53-4.75c-.07-1.1-.58-2.06-1.86-2.06a2,2,0,0,0-2,2.06Z"/><path class="cls-6" d="M472.87,372H475v1.19h0a3.28,3.28,0,0,1,2.88-1.4c2.07,0,3,1.47,3,3.44v5.53h-2.28v-4.68c0-1.07,0-2.51-1.48-2.51-1.65,0-2,1.78-2,2.91v4.28h-2.28Z"/><path class="cls-6" d="M484,373.64h-1.69V372H484v-1.75l2.28-.74V372h2v1.67h-2v4.08c0,.75.2,1.45,1.07,1.45a2.08,2.08,0,0,0,1-.24l.07,1.8a5.9,5.9,0,0,1-1.69.21A2.57,2.57,0,0,1,484,378.1Z"/><path class="cls-6" d="M496.93,380.24a6,6,0,0,1-3,.7c-2.9,0-4.58-1.67-4.58-4.55,0-2.53,1.34-4.63,4.07-4.63,3.25,0,4.17,2.23,4.17,5.3h-6.06a2.29,2.29,0,0,0,2.5,2.21,5.9,5.9,0,0,0,2.91-.89Zm-1.53-4.75c-.07-1.1-.58-2.06-1.86-2.06a2,2,0,0,0-2,2.06Z"/><path class="cls-6" d="M499.42,372h2v2h0a2.7,2.7,0,0,1,2.41-2.2,2.38,2.38,0,0,1,.69.07v2.3a2.28,2.28,0,0,0-1-.19c-1.85,0-1.85,2.32-1.85,3.58v3.21h-2.28Z"/><path class="cls-6" d="M374.37,391.32h-1.68v-1.67h1.68v-1.23a2.68,2.68,0,0,1,2.79-3,8.17,8.17,0,0,1,1.67.19l-.19,1.89a1.73,1.73,0,0,0-1-.31c-.77,0-1,.67-1,1.35v1.09h2v1.67h-2v7.09h-2.28Z"/><path class="cls-6" d="M384.18,389.44a4.39,4.39,0,0,1,4.59,4.65,4.59,4.59,0,0,1-9.17,0A4.39,4.39,0,0,1,384.18,389.44Zm0,7.41c1.75,0,2.21-1.57,2.21-3s-.72-2.61-2.21-2.61a2.34,2.34,0,0,0-2.2,2.61C382,395.26,382.44,396.85,384.18,396.85Z"/><path class="cls-6" d="M390.61,389.65h2v2h0a2.69,2.69,0,0,1,2.4-2.2,2.45,2.45,0,0,1,.7.07v2.3a2.28,2.28,0,0,0-1-.19c-1.85,0-1.85,2.32-1.85,3.58v3.21h-2.29Z"/><path class="cls-6" d="M402.12,386.53h2.39v10h4.61v1.87h-7Z"/><path class="cls-6" d="M410.48,385.87h2.28v2.18h-2.28Zm0,3.78h2.28v8.76h-2.28Z"/><path class="cls-6" d="M416,391.32h-1.69v-1.67H416v-1.23a2.68,2.68,0,0,1,2.79-3,8.07,8.07,0,0,1,1.66.19l-.18,1.89a1.8,1.8,0,0,0-1-.31c-.76,0-1,.67-1,1.35v1.09h2v1.67h-2v7.09H416Z"/><path class="cls-6" d="M428.81,397.92a6,6,0,0,1-3,.7c-2.89,0-4.58-1.67-4.58-4.55,0-2.53,1.35-4.63,4.07-4.63,3.25,0,4.17,2.23,4.17,5.3H423.4a2.29,2.29,0,0,0,2.5,2.21,5.87,5.87,0,0,0,2.91-.89Zm-1.53-4.75c-.07-1.11-.58-2.06-1.85-2.06a2,2,0,0,0-2,2.06Z"/><path class="cls-6" d="M442.57,388.71a6.21,6.21,0,0,0-2.42-.51,1.66,1.66,0,0,0-1.87,1.65c0,2.06,5.21,1.19,5.21,5.18,0,2.6-2.06,3.59-4.46,3.59a10.52,10.52,0,0,1-3-.46l.22-2.15a5.68,5.68,0,0,0,2.69.73c.9,0,2.11-.46,2.11-1.53,0-2.26-5.2-1.33-5.2-5.26,0-2.65,2.06-3.62,4.15-3.62a9.24,9.24,0,0,1,2.84.42Z"/><path class="cls-6" d="M451.13,391.54a3.37,3.37,0,0,0-1.55-.33c-1.41,0-2.31,1.13-2.31,2.78s.77,2.86,2.37,2.86a4.85,4.85,0,0,0,1.75-.41l.1,1.89a7.53,7.53,0,0,1-2.28.29c-2.88,0-4.32-2-4.32-4.63s1.5-4.55,4.24-4.55a7.69,7.69,0,0,1,2.21.29Z"/><path class="cls-6" d="M453.06,385.87h2.28v2.18h-2.28Zm0,3.78h2.28v8.76h-2.28Z"/><path class="cls-6" d="M464.77,397.92a6,6,0,0,1-3,.7c-2.9,0-4.58-1.67-4.58-4.55,0-2.53,1.34-4.63,4.07-4.63,3.25,0,4.17,2.23,4.17,5.3h-6.06a2.29,2.29,0,0,0,2.5,2.21,5.87,5.87,0,0,0,2.91-.89Zm-1.53-4.75c-.07-1.11-.58-2.06-1.86-2.06a2,2,0,0,0-2,2.06Z"/><path class="cls-6" d="M467.21,389.65h2.16v1.19h0a3.3,3.3,0,0,1,2.88-1.4c2.07,0,3,1.47,3,3.44v5.53H473v-4.68c0-1.07,0-2.52-1.48-2.52-1.65,0-2,1.79-2,2.91v4.29h-2.28Z"/><path class="cls-6" d="M483.29,391.54a3.4,3.4,0,0,0-1.55-.33c-1.41,0-2.31,1.13-2.31,2.78s.77,2.86,2.37,2.86a4.85,4.85,0,0,0,1.75-.41l.1,1.89a7.57,7.57,0,0,1-2.28.29c-2.88,0-4.32-2-4.32-4.63s1.49-4.55,4.23-4.55a7.71,7.71,0,0,1,2.22.29Z"/><path class="cls-6" d="M492.2,397.92a6,6,0,0,1-3,.7c-2.89,0-4.58-1.67-4.58-4.55,0-2.53,1.35-4.63,4.07-4.63,3.25,0,4.17,2.23,4.17,5.3h-6.06a2.3,2.3,0,0,0,2.51,2.21,5.93,5.93,0,0,0,2.91-.89Zm-1.54-4.75c-.06-1.11-.57-2.06-1.85-2.06a2,2,0,0,0-2,2.06Z"/><g class="cls-10"><rect class="cls-6" x="326.91" y="318.65" width="4.23" height="16.78"/><rect class="cls-6" x="337.17" y="322.64" width="3.4" height="16.78"/><rect class="cls-6" x="332.33" y="320.64" width="3.85" height="16.78"/><rect class="cls-6" x="320.99" y="316.65" width="4.53" height="16.78"/><rect class="cls-6" x="300.22" y="308.13" width="2.01" height="16.78"/><rect class="cls-6" x="341.36" y="324.63" width="2.86" height="16.78"/><rect class="cls-6" x="295.89" y="304.62" width="1.07" height="16.78"/><rect class="cls-6" x="290.76" y="298" width="0.59" height="16.78"/><rect class="cls-6" x="315.07" y="314.65" width="4.33" height="16.78"/><rect class="cls-6" x="304.81" y="310.56" width="2.86" height="16.78"/><rect class="cls-6" x="309.65" y="312.61" width="3.64" height="16.78"/><rect class="cls-6" x="347.43" y="328.63" width="1.47" height="16.78"/><path class="cls-6" d="M349.1,330.76v16.78c0-.25.53,0,.53,0V330.76Z"/><rect class="cls-6" x="344.81" y="326.63" width="2.23" height="16.78"/></g><path class="cls-11" d="M290.76,347.54a3.81,3.81,0,0,0,.63,2,9.52,9.52,0,0,0,1.85,2.05,20.27,20.27,0,0,0,2.64,1.91c1.07.67,2.27,1.34,3.55,2s2.79,1.34,4.29,2,3.27,1.35,4.94,2c1.87.71,3.74,1.37,5.52,2,2.18.75,4.24,1.42,6,2s3.83,1.23,6,2c1.79.61,3.65,1.27,5.52,2,1.67.63,3.33,1.29,4.94,2s2.94,1.3,4.29,2,2.48,1.31,3.55,2a21.7,21.7,0,0,1,2.73,2,9,9,0,0,1,1.76,2,3.75,3.75,0,0,1,.63,2V362.49a3.78,3.78,0,0,0-.63-2,9.22,9.22,0,0,0-1.76-2,21.69,21.69,0,0,0-2.73-2c-1.07-.68-2.26-1.34-3.55-2s-2.79-1.34-4.29-2-3.27-1.36-4.94-2c-1.87-.7-3.73-1.37-5.52-2-2.18-.75-4.24-1.41-6-2s-3.84-1.24-6-2c-1.78-.61-3.65-1.28-5.52-2-1.67-.62-3.33-1.29-4.94-2s-2.94-1.3-4.29-2-2.48-1.31-3.55-2a20.29,20.29,0,0,1-2.64-1.92,9.52,9.52,0,0,1-1.85-2.05,3.75,3.75,0,0,1-.63-2Z"/><path class="cls-6" d="M349.63,379.27a3.75,3.75,0,0,1-.63,2,9.32,9.32,0,0,1-1.85,2.06,22,22,0,0,1-2.64,1.91c-1.07.67-2.27,1.34-3.55,2s-2.79,1.34-4.29,2-3.27,1.35-4.93,2c-1.88.71-3.75,1.37-5.53,2-2.18.75-4.24,1.42-6,2s-3.84,1.23-6,2c-1.78.61-3.65,1.27-5.52,2-1.67.63-3.33,1.29-4.94,2s-2.94,1.31-4.29,2-2.48,1.31-3.55,2a22.73,22.73,0,0,0-2.73,2,9.25,9.25,0,0,0-1.76,2,3.75,3.75,0,0,0-.63,2V394.22a3.78,3.78,0,0,1,.63-2,9,9,0,0,1,1.76-2,22.74,22.74,0,0,1,2.73-2c1.07-.67,2.26-1.33,3.55-2s2.79-1.34,4.29-2,3.27-1.36,4.94-2c1.87-.7,3.74-1.37,5.52-2,2.18-.75,4.24-1.42,6-2s3.83-1.24,6-2c1.78-.61,3.65-1.28,5.53-2,1.66-.63,3.32-1.29,4.93-2s2.94-1.3,4.29-2,2.48-1.31,3.55-2a23.2,23.2,0,0,0,2.64-1.92,9.52,9.52,0,0,0,1.85-2,3.78,3.78,0,0,0,.63-2Z"/><path class="cls-6" d="M349.63,347.54a3.81,3.81,0,0,1-.63,2,9.52,9.52,0,0,1-1.85,2.05,22,22,0,0,1-2.64,1.91c-1.07.67-2.27,1.34-3.55,2s-2.79,1.34-4.29,2-3.27,1.35-4.93,2c-1.88.71-3.75,1.37-5.53,2-2.18.75-4.24,1.42-6,2s-3.84,1.23-6,2c-1.78.61-3.65,1.27-5.52,2-1.67.63-3.33,1.29-4.94,2s-2.94,1.3-4.29,2-2.48,1.31-3.55,2a21.7,21.7,0,0,0-2.73,2,9,9,0,0,0-1.76,2,3.75,3.75,0,0,0-.63,2V362.49a3.78,3.78,0,0,1,.63-2,9.22,9.22,0,0,1,1.76-2,21.69,21.69,0,0,1,2.73-2c1.07-.68,2.26-1.34,3.55-2s2.79-1.34,4.29-2,3.27-1.36,4.94-2c1.87-.7,3.74-1.37,5.52-2,2.18-.75,4.24-1.41,6-2s3.83-1.24,6-2c1.78-.61,3.65-1.28,5.53-2,1.66-.62,3.32-1.29,4.93-2s2.94-1.3,4.29-2,2.48-1.31,3.55-2a22,22,0,0,0,2.64-1.92,9.52,9.52,0,0,0,1.85-2.05,3.75,3.75,0,0,0,.63-2Z"/><rect class="cls-6" x="309.25" y="318.65" width="4.23" height="16.78"/><rect class="cls-6" x="299.83" y="322.64" width="3.4" height="16.78"/><rect class="cls-6" x="304.21" y="320.64" width="3.85" height="16.78"/><rect class="cls-6" x="314.87" y="316.65" width="4.53" height="16.78"/><rect class="cls-6" x="338.16" y="308.13" width="2.01" height="16.78"/><rect class="cls-6" x="296.17" y="324.63" width="2.86" height="16.78"/><rect class="cls-6" x="343.42" y="304.62" width="1.07" height="16.78"/><rect class="cls-6" x="349.04" y="298" width="0.59" height="16.78"/><rect class="cls-6" x="320.99" y="314.65" width="4.33" height="16.78"/><rect class="cls-6" x="332.73" y="310.56" width="2.86" height="16.78"/><rect class="cls-6" x="327.1" y="312.61" width="3.64" height="16.78"/><rect class="cls-6" x="291.49" y="328.63" width="1.47" height="16.78"/><path class="cls-6" d="M291.29,330.76v16.78c0-.25-.53,0-.53,0V330.76Z"/><rect class="cls-6" x="293.35" y="326.63" width="2.23" height="16.78"/></g></svg>