<svg xmlns="http://www.w3.org/2000/svg" viewBox="0 0 579 103"><defs><style>.cls-1,.cls-5{isolation:isolate;}.cls-2{fill:#333;}.cls-3{fill:#048998;}.cls-4{fill:#fdd365;}.cls-5{fill:#fff;opacity:0.1;}</style></defs><g id="レイヤー_2" data-name="レイヤー 2"><g id="グループ_1285" data-name="グループ 1285"><g id="TV-2" class="cls-1"><g class="cls-1"><path class="cls-2" d="M454.37,84.44v-53H440.08V20.5h41.13V31.43H466.83v53Z"/><path class="cls-2" d="M535.37,63.45,552.63,20.5h13.52L538.54,86.07h-6.71L504.7,20.5h13.61Z"/></g></g><g id="グループ_1284" data-name="グループ 1284"><g id="グループ_1283" data-name="グループ 1283"><circle id="楕円形_82" data-name="楕円形 82" class="cls-3" cx="382.75" cy="51.5" r="37.53"/><circle id="楕円形_83" data-name="楕円形 83" class="cls-3" cx="382.75" cy="51.5" r="37.53"/><g id="グループ_1282" data-name="グループ 1282"><g id="グループ_1280" data-name="グループ 1280"><path id="パス_8231" data-name="パス 8231" class="cls-4" d="M375.56,38,395.79,51.5,375.56,65Z"/></g><g id="グループ_1281" data-name="グループ 1281"><path id="パス_8232" data-name="パス 8232" class="cls-4" d="M375.56,38,395.79,51.5,375.56,65Z"/></g></g></g><path id="パス_8233" data-name="パス 8233" class="cls-5" d="M382.75,14a37.52,37.52,0,0,0-26.23,64.36l53.05-53.06A37.41,37.41,0,0,0,382.75,14Z"/></g><g id="TOGO" class="cls-1"><g class="cls-1"><path class="cls-2" d="M31.78,83V30H17.5V19.05H58.63V30H44.25V83Z"/><path class="cls-2" d="M111.26,17.61a34.18,34.18,0,0,1,24.15,9.68,33.12,33.12,0,0,1,7.24,10.6,32.73,32.73,0,0,1,2.64,13.18,32.72,32.72,0,0,1-9.92,23.77,33.5,33.5,0,0,1-11,7,36.28,36.28,0,0,1-13.61,2.54A34.24,34.24,0,0,1,97.4,81.84,32.75,32.75,0,0,1,79.52,64a34.37,34.37,0,0,1-2.58-13.37,31.28,31.28,0,0,1,2.68-12.85A33.05,33.05,0,0,1,87,27.24a35.16,35.16,0,0,1,24.31-9.63Zm-.2,11.31a19.81,19.81,0,0,0-8.19,1.74,21.86,21.86,0,0,0-6.81,4.71,22.18,22.18,0,0,0-4.6,6.94,21.38,21.38,0,0,0-1.68,8.47,22.71,22.71,0,0,0,1.68,8.71A23.06,23.06,0,0,0,96,66.62a20.86,20.86,0,0,0,6.81,4.76,20.37,20.37,0,0,0,8.34,1.74,20,20,0,0,0,8.29-1.74,21,21,0,0,0,6.76-4.76,23.05,23.05,0,0,0,4.55-7,23,23,0,0,0,0-17.24,22.35,22.35,0,0,0-4.55-7,21.3,21.3,0,0,0-6.76-4.71A20.27,20.27,0,0,0,111.06,28.92Z"/><path class="cls-2" d="M233.77,48.67q0,3.55-.19,6.25T233,59.87A29,29,0,0,1,232,64a25.87,25.87,0,0,1-1.58,3.7A29.2,29.2,0,0,1,219.3,80.15a31.7,31.7,0,0,1-16.68,4.28,35.39,35.39,0,0,1-13.43-2.49,32.47,32.47,0,0,1-10.59-6.86,31.42,31.42,0,0,1-7-10.45,34.19,34.19,0,0,1-2.54-13.28,35.4,35.4,0,0,1,2.54-13.56,31.76,31.76,0,0,1,7.05-10.64,32.43,32.43,0,0,1,10.74-7A35.76,35.76,0,0,1,203,17.61a32.67,32.67,0,0,1,15.91,3.76,30.86,30.86,0,0,1,11.51,11.19l-10.93,5.85q-5.76-9.48-16.59-9.49a20.35,20.35,0,0,0-15,6.34,21.14,21.14,0,0,0-4.41,7.11,24.9,24.9,0,0,0-1.58,8.94A23.44,23.44,0,0,0,183.49,60a21.32,21.32,0,0,0,4.36,6.92,19.59,19.59,0,0,0,6.62,4.56,21,21,0,0,0,8.34,1.64,17.58,17.58,0,0,0,11.45-3.69,14.44,14.44,0,0,0,5.32-9.83H204.53V48.67Z"/><path class="cls-2" d="M291.77,17.61a34.23,34.23,0,0,1,24.16,9.68,33.83,33.83,0,0,1,7.24,37,32.64,32.64,0,0,1-7.29,10.59,33.39,33.39,0,0,1-11,7,36.21,36.21,0,0,1-13.61,2.54,34.19,34.19,0,0,1-13.37-2.59A32.67,32.67,0,0,1,260,64a34.19,34.19,0,0,1-2.59-13.37,31.28,31.28,0,0,1,2.68-12.85,33.08,33.08,0,0,1,7.34-10.5,35.16,35.16,0,0,1,24.3-9.63Zm-.19,11.31a19.83,19.83,0,0,0-8.2,1.74,21.7,21.7,0,0,0-6.8,4.71A22.21,22.21,0,0,0,272,42.31a21.55,21.55,0,0,0-1.67,8.47,23,23,0,0,0,6.23,15.84,20.72,20.72,0,0,0,6.8,4.76,20.37,20.37,0,0,0,8.34,1.74,20.08,20.08,0,0,0,8.3-1.74,21,21,0,0,0,6.76-4.76,23.43,23.43,0,0,0,4.55-7,23,23,0,0,0,0-17.24,22.71,22.71,0,0,0-4.55-7A21.3,21.3,0,0,0,300,30.66,20.3,20.3,0,0,0,291.58,28.92Z"/></g></g></g></g></svg>