<svg xmlns="http://www.w3.org/2000/svg" viewBox="0 0 579 103"><defs><style>.cls-1{isolation:isolate;}.cls-2{fill:#fff;}</style></defs><g id="レイヤー_2" data-name="レイヤー 2"><g id="グループ_1285" data-name="グループ 1285"><g id="TV-2" class="cls-1"><g class="cls-1"><path class="cls-2" d="M455,84.44v-53H440.73V20.5h41.13V31.43H467.48v53Z"/><path class="cls-2" d="M536,63.45,553.28,20.5h13.51L539.18,86.07h-6.71L505.34,20.5H519Z"/></g></g><g id="TOGO" class="cls-1"><g class="cls-1"><path class="cls-2" d="M32.43,83V30H18.15V19.05H59.27V30H44.89V83Z"/><path class="cls-2" d="M111.9,17.61a34.18,34.18,0,0,1,24.16,9.68,33.12,33.12,0,0,1,7.24,10.6,32.73,32.73,0,0,1,2.64,13.18A32.67,32.67,0,0,1,136,74.84a33.45,33.45,0,0,1-11,7,36.3,36.3,0,0,1-13.62,2.54,34.19,34.19,0,0,1-13.37-2.59A32.67,32.67,0,0,1,80.17,64a34.37,34.37,0,0,1-2.59-13.37,31.29,31.29,0,0,1,2.69-12.85,33.05,33.05,0,0,1,7.33-10.5,35.16,35.16,0,0,1,24.3-9.63Zm-.19,11.31a19.86,19.86,0,0,0-8.2,1.74,22,22,0,0,0-11.4,11.65,21.38,21.38,0,0,0-1.68,8.47,23.09,23.09,0,0,0,6.23,15.84,20.86,20.86,0,0,0,6.81,4.76,20.37,20.37,0,0,0,8.34,1.74,20,20,0,0,0,8.29-1.74,21,21,0,0,0,6.76-4.76,23.24,23.24,0,0,0,4.55-7,23,23,0,0,0,0-17.24,22.53,22.53,0,0,0-4.55-7,21.3,21.3,0,0,0-6.76-4.71A20.3,20.3,0,0,0,111.71,28.92Z"/><path class="cls-2" d="M234.42,48.67c0,2.37-.07,4.45-.19,6.25s-.32,3.44-.58,4.95a27.78,27.78,0,0,1-1,4.13,24.85,24.85,0,0,1-1.59,3.7,29.08,29.08,0,0,1-11.12,12.45,31.7,31.7,0,0,1-16.68,4.28,35.34,35.34,0,0,1-13.42-2.49,32.47,32.47,0,0,1-10.59-6.86,31.27,31.27,0,0,1-7-10.45,34.19,34.19,0,0,1-2.54-13.28,35.4,35.4,0,0,1,2.54-13.56,31.61,31.61,0,0,1,7.05-10.64,32.49,32.49,0,0,1,10.73-7,35.82,35.82,0,0,1,13.62-2.54,32.7,32.7,0,0,1,15.91,3.76,30.76,30.76,0,0,1,11.5,11.19l-10.92,5.85q-5.76-9.48-16.59-9.49a20.58,20.58,0,0,0-8.34,1.68,20.33,20.33,0,0,0-6.66,4.66,21.14,21.14,0,0,0-4.41,7.11,24.68,24.68,0,0,0-1.58,8.94A23.24,23.24,0,0,0,184.14,60a21.32,21.32,0,0,0,4.36,6.92,19.65,19.65,0,0,0,6.61,4.56,21.07,21.07,0,0,0,8.34,1.64,17.61,17.61,0,0,0,11.46-3.69,14.44,14.44,0,0,0,5.32-9.83h-15V48.67Z"/><path class="cls-2" d="M292.42,17.61a34.23,34.23,0,0,1,24.16,9.68,33.1,33.1,0,0,1,7.23,10.6,32.73,32.73,0,0,1,2.64,13.18,32.72,32.72,0,0,1-9.92,23.77,33.39,33.39,0,0,1-11,7,36.28,36.28,0,0,1-13.61,2.54,34.19,34.19,0,0,1-13.37-2.59A32.67,32.67,0,0,1,260.69,64a34.19,34.19,0,0,1-2.59-13.37,31.28,31.28,0,0,1,2.68-12.85,32.92,32.92,0,0,1,7.34-10.5,35.11,35.11,0,0,1,24.3-9.63Zm-.19,11.31a19.83,19.83,0,0,0-8.2,1.74,21.86,21.86,0,0,0-6.81,4.71,22.18,22.18,0,0,0-4.6,6.94,21.38,21.38,0,0,0-1.68,8.47,23,23,0,0,0,6.24,15.84,20.72,20.72,0,0,0,6.8,4.76,20.37,20.37,0,0,0,8.34,1.74,20,20,0,0,0,8.29-1.74,20.87,20.87,0,0,0,6.76-4.76,23.27,23.27,0,0,0,4.56-7,23.08,23.08,0,0,0,0-17.24,22.55,22.55,0,0,0-4.56-7,21.19,21.19,0,0,0-6.76-4.71A20.22,20.22,0,0,0,292.23,28.92Z"/></g></g></g><g id="グループ_1292" data-name="グループ 1292"><path class="cls-2" d="M383.39,14A37.53,37.53,0,1,0,420.92,51.5,37.52,37.52,0,0,0,383.39,14ZM376.22,65V38L396.45,51.5Z"/></g></g></svg>